<?xml version="1.0" encoding="UTF-8"?>
<svg version="1.1" xmlns="http://www.w3.org/2000/svg" width="10039" height="2689">
<path d="M0 0 C196.35 0 392.7 0 595 0 C594.34670615 8.49282002 593.60557669 16.89192753 592.58203125 25.3359375 C592.296461 27.74860089 592.01175316 30.16136648 591.7277832 32.57421875 C591.57862457 33.84056152 591.42946594 35.1069043 591.27578735 36.41162109 C583.14244255 105.99160639 578.2925414 175.87131884 575.8125 245.875 C575.77547974 246.91573669 575.73845947 247.95647339 575.70031738 249.02874756 C574.27189434 290.27384355 573.84356257 331.52545547 573.79942851 372.79231441 C573.79197733 378.86175687 573.78004058 384.93118995 573.76832329 391.0006253 C573.74472188 403.29895557 573.72516484 415.5972887 573.70826721 427.89562988 C573.68540592 444.52450474 573.65668875 461.15336123 573.6270752 477.78222656 C573.55888626 517.68814282 573.49866823 557.59407237 573.4375 597.5 C573.293125 686.765 573.14875 776.03 573 868 C880.23 868 1187.46 868 1504 868 C1503.855625 784.71625 1503.71125 701.4325 1503.5625 615.625 C1503.49784546 576.38392334 1503.49784546 576.38392334 1503.43188477 536.35009766 C1503.38856589 512.61137283 1503.38856589 512.61137283 1503.34410095 488.87265015 C1503.32581595 479.09560291 1503.30933293 469.31855525 1503.29477821 459.54150194 C1503.22144244 385.63672565 1503.22144244 385.63672565 1502.53491211 311.73583984 C1502.52498874 311.01601505 1502.51506536 310.29619025 1502.50484128 309.55455258 C1502.28162744 293.4894319 1501.95749259 277.42756872 1501.56227112 261.36587524 C1501.53564015 260.28256668 1501.53564015 260.28256668 1501.50847118 259.1773731 C1499.50718608 178.4869372 1495.4468746 97.46397732 1483.47290039 17.56420898 C1483.3727916 16.88793457 1483.2726828 16.21166016 1483.16954041 15.51489258 C1482.90607944 13.74605457 1482.6352789 11.97831386 1482.36376953 10.21069336 C1482 7 1482 7 1482 0 C1678.35 0 1874.7 0 2077 0 C2074.73556938 20.3798756 2074.73556938 20.3798756 2073.66796875 28.39453125 C2060.95614026 125.77331 2056.54321445 224.03735442 2055.74102327 371.7248288 C2055.74825296 380.19842323 2055.74312889 388.67200314 2055.73811079 397.14559763 C2055.72907048 412.96259972 2055.7291306 428.77958877 2055.73467255 444.59659195 C2055.74023148 460.56081848 2055.74129129 476.52503647 2055.73719788 492.48926353 C2055.73681036 494.01804434 2055.73681036 494.01804434 2055.73641501 495.5777096 C2055.73534813 499.73065166 2055.73425066 503.88359372 2055.73311446 508.03653576 C2055.72260967 546.46075699 2055.72178534 584.88497252 2055.72740936 623.30919456 C2055.7328223 660.31067163 2055.73490872 697.31214601 2055.73236847 734.31362343 C2055.73221351 736.64915368 2055.7320592 738.98468393 2055.73190553 741.32021419 C2055.73128446 750.7085724 2055.73064711 760.09693062 2055.729986 769.48528883 C2055.7281531 795.72015679 2055.72701108 821.95502476 2055.72641373 848.18989277 C2055.72637279 849.98104633 2055.72637279 849.98104633 2055.72633103 851.80838481 C2055.72551396 889.78748765 2055.72775851 927.76658967 2055.73211288 965.74569225 C2055.73225338 966.97528286 2055.73239388 968.20487347 2055.73253864 969.4717244 C2055.73482782 989.43238148 2055.73726707 1009.39303854 2055.73971898 1029.3536956 C2055.74943063 1108.49971535 2055.74897809 1187.64572833 2055.73925781 1266.79174805 C2055.73681492 1286.74654483 2055.73439261 1306.70134162 2055.73211288 1326.65613842 C2055.73197199 1327.88525442 2055.73183109 1329.11437043 2055.73168593 1330.38073237 C2055.72736604 1368.32731724 2055.72554642 1406.27390154 2055.72641373 1444.22048664 C2055.7264409 1445.41364277 2055.72646806 1446.6067989 2055.72649606 1447.83611128 C2055.72712133 1474.04126444 2055.72838923 1500.24641754 2055.73023473 1526.45157065 C2055.73089286 1535.82997909 2055.73151904 1545.20838753 2055.73213615 1554.58679597 C2055.73229093 1556.91934918 2055.73244839 1559.2519024 2055.73260855 1561.58445562 C2055.73514072 1598.5643283 2055.73231969 1635.54419801 2055.72690826 1672.5240703 C2055.72136161 1710.84695305 2055.72348181 1749.169829 2055.73397085 1787.49271079 C2055.73507528 1791.6301204 2055.73614872 1795.76753002 2055.73719788 1799.90493965 C2055.7375885 1801.427764 2055.7375885 1801.427764 2055.73798701 1802.98135247 C2055.74189118 1818.88529325 2055.73922934 1834.78922541 2055.73365986 1850.6931654 C2055.72829435 1866.43152247 2055.73035942 1882.16986539 2055.73968804 1897.90822072 C2055.74446656 1906.28381959 2055.74645844 1914.65938947 2055.73887607 1923.03498711 C2055.70915496 1957.90051976 2056.02643382 1992.73426528 2056.93384171 2027.58916187 C2056.96538451 2028.80874526 2056.96538451 2028.80874526 2056.99756454 2030.0529667 C2058.72560557 2096.56173198 2062.9279264 2162.86501694 2069.5625 2229.0625 C2069.63398758 2229.77709759 2069.70547516 2230.49169518 2069.77912903 2231.22794724 C2071.58531797 2249.25324049 2073.56550412 2267.25259695 2075.75257874 2285.2358551 C2075.83595301 2285.92805964 2075.91932728 2286.62026417 2076.00522804 2287.3334446 C2076.23080508 2289.20501254 2076.45899076 2291.07626554 2076.68736267 2292.94749451 C2077 2296 2077 2296 2077 2300 C1880.65 2300 1684.3 2300 1482 2300 C1483.14265401 2282.8601899 1483.14265401 2282.8601899 1484.234375 2274.86328125 C1484.4791065 2272.9962312 1484.72338947 2271.12912231 1484.96728516 2269.26196289 C1485.1586203 2267.81250778 1485.1586203 2267.81250778 1485.3538208 2266.33377075 C1494.42163459 2197.18243561 1498.47230677 2127.65503396 1501 2058 C1501.03631531 2057.00212463 1501.07263062 2056.00424927 1501.11004639 2054.97613525 C1501.40693857 2046.69226133 1501.64508547 2038.40878822 1501.79689026 2030.12095642 C1501.81241993 2029.27933392 1501.82794959 2028.43771141 1501.84394985 2027.57058519 C1501.87808861 2025.7076254 1501.91196455 2023.84466078 1501.94561315 2021.98169208 C1502.00165861 2018.90906848 1502.06015243 2015.83649659 1502.11860466 2012.76391792 C1503.29249985 1949.69910095 1503.21660986 1886.62301252 1503.29781737 1823.5496969 C1503.31891931 1807.23531316 1503.34600704 1790.92094321 1503.3729248 1774.60656738 C1503.44093014 1731.71688562 1503.50126482 1688.82719197 1503.5625 1645.9375 C1503.706875 1549.928125 1503.85125 1453.91875 1504 1355 C1196.77 1355 889.54 1355 573 1355 C573.185625 1507.9240625 573.185625 1507.9240625 573.375 1663.9375 C573.40899902 1695.98609131 573.44299805 1728.03468262 573.47802734 1761.05444336 C573.51798967 1790.08338346 573.51798967 1790.08338346 573.56045532 1819.11231995 C573.57790953 1831.08619528 573.59141397 1843.06006122 573.60073484 1855.03394524 C573.65974096 1930.65156473 573.7318782 2006.22200786 576.6734314 2081.79527283 C576.69970158 2082.47107226 576.72597176 2083.1468717 576.753038 2083.84314991 C579.36409634 2150.50505778 584.80813075 2217.20304753 593.52734375 2283.34448242 C593.6274173 2284.10843826 593.72749084 2284.8723941 593.83059692 2285.65950012 C594.09565157 2287.67238848 594.3657197 2289.68461496 594.63623047 2291.69677734 C595 2295 595 2295 595 2300 C398.65 2300 202.3 2300 0 2300 C0.61886425 2291.33590053 1.29800644 2282.86099211 2.453125 2274.28125 C2.74366093 2272.05663469 3.03359198 2269.83194032 3.32299805 2267.60717773 C3.4742514 2266.45144257 3.62550476 2265.2957074 3.78134155 2264.10494995 C12.3855191 2197.92108065 16.79603115 2131.36420496 18.91467285 2064.67468262 C19.01484036 2061.53481107 19.11975593 2058.39511112 19.22576904 2055.25543213 C20.94359576 2001.56969363 21.15471425 1947.83205724 21.12948837 1894.12339589 C21.12589139 1885.98705885 21.12842937 1877.85072565 21.1309446 1869.7143886 C21.13547622 1854.52423866 21.13542878 1839.33409211 21.13266373 1824.14394188 C21.12988849 1808.80316347 21.12935108 1793.46238728 21.13140106 1778.12160873 C21.13159482 1776.65485838 21.13159482 1776.65485838 21.13179249 1775.1584767 C21.13232591 1771.17431342 21.13287464 1767.19015013 21.13344277 1763.20598686 C21.1387007 1726.30652314 21.13910482 1689.4070609 21.13629532 1652.50759697 C21.13359084 1616.9690696 21.13254463 1581.43054292 21.13381577 1545.89201546 C21.13389325 1543.65059424 21.1339704 1541.40917301 21.13404724 1539.16775179 C21.13435776 1530.1581022 21.13467643 1521.1484526 21.135007 1512.13880301 C21.13592354 1486.96063615 21.13649448 1461.78246928 21.13679314 1436.60430241 C21.13680678 1435.4582057 21.13682043 1434.31210899 21.13683449 1433.13128208 C21.13724314 1396.66803143 21.13612012 1360.204781 21.13394356 1323.74153042 C21.13387331 1322.56067049 21.13380306 1321.37981057 21.13373068 1320.16316701 C21.13258604 1300.99252931 21.13136643 1281.82189162 21.13014051 1262.65125392 C21.12528484 1186.63835163 21.12551053 1110.62545111 21.13037109 1034.61254883 C21.1315925 1015.44987456 21.13280364 996.2872003 21.13394356 977.12452602 C21.13401401 975.9442596 21.13408445 974.76399317 21.13415704 973.5479611 C21.13631648 937.11827552 21.13722688 900.68859009 21.13679314 864.25890446 C21.13677955 863.11368631 21.13676597 861.96846817 21.13675197 860.78854644 C21.13643936 835.63793224 21.13580545 810.48731806 21.13488263 785.33670388 C21.13455356 776.33591918 21.13424047 767.33513448 21.13393192 758.33434978 C21.13385453 756.09563917 21.1337758 753.85692856 21.13369573 751.61821795 C21.13242874 716.10052857 21.13384178 680.58283997 21.13654587 645.06515069 C21.13931713 608.26282019 21.13826322 571.46049146 21.13301457 534.65816122 C21.13246234 530.68777088 21.13192562 526.71738054 21.13140106 522.7469902 C21.13127086 521.77273284 21.13114065 520.79847547 21.1310065 519.79469515 C21.12905167 504.51021021 21.13038835 489.22572751 21.13317007 473.94124277 C21.1358477 458.82895796 21.13482917 443.71667683 21.13015598 428.60439248 C21.12776072 420.55633873 21.12678522 412.50829254 21.13056196 404.4602391 C21.14456381 372.72603425 21.02267676 340.99999413 20.54675102 309.26895237 C20.53668176 308.58818224 20.5266125 307.9074121 20.5162381 307.20601257 C20.28534573 291.64332304 19.97397401 276.08379417 19.56153119 260.52493852 C19.54379926 259.8553666 19.52606734 259.18579469 19.50779809 258.49593271 C17.39255745 179.34355309 12.42974757 100.28769884 1.87939453 21.78222656 C1.75390732 20.83882919 1.6284201 19.89543182 1.49913025 18.92344666 C1.26598661 17.17594425 1.02896566 15.42895244 0.78712463 13.68263245 C0.68294724 12.9015361 0.57876984 12.12043976 0.47143555 11.31567383 C0.37992722 10.6470784 0.28841888 9.97848297 0.19413757 9.28962708 C-0.06753676 6.20348242 0 3.09721848 0 0 Z " fill="#F3F4F4" transform="translate(772,189)"/>
<path d="M0 0 C18.31843319 -0.23737237 36.5692538 0.42605337 54.86743164 1.16802979 C63.73399254 1.52703971 72.6013438 1.8657405 81.46875 2.203125 C82.37015213 2.23749287 83.27155426 2.27186073 84.20027161 2.30727005 C114.12640349 3.44438748 144.06207567 4.24759119 174 5 C175.09298401 5.0279364 176.18596802 5.0558728 177.31207275 5.08465576 C178.8410318 5.1237204 178.8410318 5.1237204 180.40087891 5.16357422 C181.26186188 5.18563934 182.12284485 5.20770447 183.00991821 5.23043823 C246.55073312 6.78373498 310.12129063 7.15080605 373.67857113 7.17044238 C382.63428306 7.17342996 391.58998768 7.18221846 400.5456954 7.1910775 C417.06368662 7.2073083 433.58167826 7.219632 450.09967422 7.22979546 C473.72426827 7.24443538 497.34885112 7.26719976 520.97343699 7.29146057 C530.52402331 7.30123509 540.07460989 7.31076155 549.62519646 7.32029057 C550.68513345 7.32134933 551.74507045 7.3224081 552.83712675 7.32349895 C577.88604508 7.34847577 602.93496541 7.37105829 627.98388672 7.39282227 C629.07554563 7.3937727 630.16720454 7.39472314 631.29194402 7.39570238 C656.79871346 7.41788669 682.30548355 7.43878461 707.81225586 7.45739746 C708.91258445 7.45820121 710.01291303 7.45900496 711.14658491 7.45983307 C716.69749449 7.46388508 722.24840407 7.46792658 727.79931365 7.47196633 C728.89678997 7.47276532 729.99426628 7.47356431 731.12499945 7.47438752 C733.34015196 7.47599978 735.55530447 7.4776106 737.77045698 7.47921998 C774.48487931 7.5059352 811.19929091 7.53932796 847.91370051 7.57999813 C853.1099156 7.58574539 858.30613079 7.59140423 863.50234604 7.59700203 C864.52445956 7.59810383 865.54657309 7.59920564 866.59965975 7.60034083 C882.91540146 7.61771016 899.23113995 7.62796861 915.54688896 7.63525448 C931.95772262 7.64269818 948.36853808 7.65720214 964.77935947 7.67868023 C973.63629683 7.69007027 982.49320949 7.69842731 991.35015488 7.69767189 C1037.17607469 7.69587109 1082.91528992 8.15245321 1128.625 11.8125 C1129.7014679 11.89648041 1130.77793579 11.98046082 1131.88702393 12.06698608 C1224.42421985 19.3128247 1316.21056806 35.089711 1525.24121094 117.45068359 C1528.18181461 119.1021058 1531.13974473 120.71898975 1534.1015625 122.33203125 C1547.70188343 129.7781228 1560.77824596 137.79839536 1573.65625 146.43164062 C1575.58572744 147.72278261 1577.52225109 149.00040071 1579.46875 150.265625 C1599.02376092 163.05159368 1617.70317391 177.34198594 1635.38183594 192.60839844 C1637.134578 194.11573545 1638.89839871 195.60938719 1640.6640625 197.1015625 C1651.45820641 206.24561917 1651.45820641 206.24561917 1656.32006836 211.32104492 C1658.01332368 213.01331593 1659.77477617 214.55820947 1661.59765625 216.109375 C1666.46546316 220.34251706 1671.01352226 224.86673944 1675.5625 229.4375 C1676.37396484 230.24509766 1677.18542969 231.05269531 1678.02148438 231.88476562 C1682.32337876 236.19360415 1686.46845499 240.57657308 1690.43823242 245.19311523 C1692.6867391 247.79452182 1695.03135811 250.296428 1697.375 252.8125 C1702.49005227 258.3566527 1707.28627538 264.10979204 1712 270 C1712.92240375 271.13083957 1713.84562196 272.26101515 1714.76953125 273.390625 C1732.51678944 295.18327914 1748.92799057 318.72115475 1762.91308594 343.11767578 C1764.12346932 345.2138249 1765.36235608 347.29186129 1766.6015625 349.37109375 C1807.36191949 418.4310246 1832.69180742 496.47504421 1862 735 C1862.03287109 736.73612549 1862.03287109 736.73612549 1862.06640625 738.50732422 C1863.59409175 830.28303034 1853.06684682 924.26413252 1800 1094 C1799.50983398 1095.20043945 1799.01966797 1096.40087891 1798.51464844 1097.63769531 C1786.33093049 1127.21532623 1772.18740527 1156.20058458 1755.51416016 1183.51416016 C1754.08743425 1185.85645671 1752.68640795 1188.21201244 1751.29296875 1190.57421875 C1735.94666177 1216.40386947 1718.23945625 1240.93963803 1699 1264 C1698.50870605 1264.59039063 1698.01741211 1265.18078125 1697.51123047 1265.7890625 C1692.14957526 1272.21944428 1686.681451 1278.54033755 1681.046875 1284.734375 C1679.16477879 1286.81761127 1677.32837688 1288.93218933 1675.5 1291.0625 C1672.30798954 1294.73478981 1668.89754945 1298.14416845 1665.40625 1301.53125 C1663.40870395 1303.58068036 1661.54914625 1305.66593645 1659.6875 1307.8359375 C1656.18557403 1311.86897014 1652.429673 1315.51336638 1648.5 1319.125 C1647.08976559 1320.43220735 1645.67961128 1321.73950113 1644.26953125 1323.046875 C1643.56006348 1323.70236328 1642.8505957 1324.35785156 1642.11962891 1325.03320312 C1640.07259837 1326.93263621 1638.03971569 1328.84590205 1636.01171875 1330.765625 C1629.77550858 1336.65989785 1623.50132644 1342.38233023 1616.7890625 1347.73828125 C1614.16278434 1349.86799421 1611.61181927 1352.06077801 1609.06567383 1354.28442383 C1601.67095117 1360.7297057 1593.99547133 1366.69039341 1586.07861328 1372.47900391 C1584.02441897 1373.98213176 1581.9788756 1375.49649558 1579.93359375 1377.01171875 C1553.27134957 1396.63908642 1525.20332888 1414.40225302 1496 1430 C1495.02933594 1430.51884766 1494.05867188 1431.03769531 1493.05859375 1431.57226562 C1453.51068376 1452.60787174 1412.4701777 1469.82153239 1370 1484 C1368.95930359 1484.34807709 1368.95930359 1484.34807709 1367.89758301 1484.70318604 C1329.61305542 1497.47173024 1290.55327862 1507.08068365 1251 1515 C1250.28402649 1515.14439514 1249.56805298 1515.28879028 1248.8303833 1515.43756104 C1166.7300889 1531.96907376 1082.52319833 1537.39494572 998.92577624 1537.23213124 C993.19101708 1537.22328221 987.45626067 1537.22643161 981.72149658 1537.22793579 C971.84576436 1537.22897146 961.97005909 1537.22283541 952.09433365 1537.21146011 C937.81667587 1537.19502542 923.53903077 1537.18997902 909.26136456 1537.18748413 C886.08227594 1537.18313477 862.90320194 1537.16991921 839.72412109 1537.15087891 C817.242351 1537.13243307 794.76058477 1537.11830388 772.27880859 1537.10986328 C771.58265252 1537.10960023 770.88649644 1537.10933718 770.16924473 1537.10906615 C763.1765093 1537.10642853 756.18377385 1537.10387699 749.19103837 1537.10138843 C690.79401619 1537.08059828 632.39700817 1537.04539131 574 1537 C574.08229045 1592.09966289 574.17467292 1647.19930126 574.28005161 1702.29892508 C574.29256615 1708.84682557 574.3049996 1715.39472621 574.31738281 1721.94262695 C574.31984881 1723.24585464 574.3223148 1724.54908233 574.32485552 1725.89180177 C574.36426655 1746.82124176 574.39715158 1767.75068694 574.42749982 1788.68014181 C574.4589351 1810.25582666 574.49767286 1831.83149008 574.54279006 1853.40715069 C574.56784445 1865.48362115 574.58979748 1877.56007874 574.60334396 1889.63656807 C574.70867839 1980.71999005 576.83102627 2071.54161542 595.39083862 2299.38212585 C595.72359557 2302.27553051 596 2305.08445856 596 2308 C399.32 2308 202.64 2308 0 2308 C2.64 2285.23 5.28 2262.46 8 2239 C13.07797369 2186.60454417 16.54994483 2134.21008512 18.6875 2081.625 C18.71824867 2080.87372078 18.74899734 2080.12244156 18.7806778 2079.3483963 C18.82582645 2078.24289051 18.82582645 2078.24289051 18.87188721 2077.11505127 C18.91106703 2076.15640608 18.91106703 2076.15640608 18.95103836 2075.17839432 C19.3387642 2065.45343331 19.67651563 2055.72727314 20 2046 C20.03564226 2044.94569431 20.03564226 2044.94569431 20.07200457 2043.87008952 C21.19628062 2010.40311606 21.14651292 1976.93070551 21.13542773 1943.44953835 C21.13279282 1934.84303342 21.1361359 1926.23653288 21.13953945 1917.63002857 C21.14572881 1901.55291936 21.1472522 1885.47581285 21.14612198 1869.39870262 C21.1449929 1853.13226294 21.14604761 1836.86582555 21.14969444 1820.59938622 C21.1499241 1819.56743266 21.15015375 1818.5354791 21.15039036 1817.47225422 C21.15133213 1813.26839662 21.15228783 1809.06453903 21.15326155 1804.86068144 C21.16337591 1761.1290245 21.16646644 1717.39736885 21.16705366 1673.66571088 C21.16711842 1668.96643302 21.16718636 1664.26715516 21.16725707 1659.56787729 C21.16727408 1658.40156335 21.16729108 1657.23524941 21.1673086 1656.03359262 C21.16771803 1630.12400478 21.16991109 1604.21441719 21.17241292 1578.30482947 C21.17344136 1567.61729546 21.17443143 1556.92976145 21.17542917 1546.24222744 C21.17553975 1545.06113743 21.17565034 1543.88004743 21.17576428 1542.66316682 C21.18208387 1475.02726103 21.1862139 1407.3913554 21.18575573 1339.7554493 C21.18573995 1337.22711696 21.18572422 1334.69878463 21.18570852 1332.1704523 C21.18563514 1320.75671822 21.18554698 1309.34298415 21.18545464 1297.92925008 C21.18541351 1292.84018829 21.18537337 1287.75112649 21.18533332 1282.66206469 C21.18531293 1280.11490408 21.18529191 1277.56774348 21.18527026 1275.02058287 C21.18459047 1194.52967056 21.19190138 1114.03876265 21.20581055 1033.54785156 C21.20931205 1013.27426212 21.21278172 993.00067268 21.21607494 972.72708321 C21.21627782 971.47847559 21.21648069 970.22986798 21.21668971 968.94342377 C21.22291315 930.40652122 21.22667191 891.86961902 21.22793293 853.33271599 C21.22797288 852.12125159 21.22801283 850.90978719 21.22805399 849.66161175 C21.22890762 823.05566838 21.22916835 796.44972504 21.22888362 769.84378165 C21.22878715 760.32151097 21.22873509 750.79924028 21.22870489 741.2769696 C21.22869697 738.90839953 21.22868677 736.53982947 21.22867426 734.17125941 C21.22849858 696.56845059 21.23416987 658.96564557 21.24282808 621.36283784 C21.25151442 583.44483387 21.25363831 545.52683513 21.24706676 507.60883058 C21.24615474 502.34490086 21.24531139 497.08097113 21.24450874 491.8170414 C21.24434866 490.78537815 21.24418857 489.7537149 21.24402363 488.69078913 C21.24168994 472.49411741 21.24598295 456.29745486 21.25317993 440.10078485 C21.26014977 424.09231388 21.25973698 408.08385616 21.25198779 392.07538544 C21.2480487 383.54674657 21.24698862 375.01813683 21.25544515 366.48950042 C21.28633238 333.62882559 21.0808309 300.80133628 20.07048512 267.95420647 C20.04957857 267.27325263 20.02867203 266.5922988 20.00713196 265.89071 C17.25430985 176.91118892 10.15175472 88.4225778 0 0 Z M574 478 C574 672.37 574 866.74 574 1067 C641.93875 1067.020625 709.8775 1067.04125 779.875 1067.0625 C801.30421387 1067.071604 822.73342773 1067.08070801 844.81201172 1067.09008789 C864.06886283 1067.09343292 864.06886283 1067.09343292 883.32571411 1067.09544373 C891.88374102 1067.09637304 900.44176133 1067.10002754 908.99978638 1067.10557556 C918.88825487 1067.11197652 928.77671709 1067.11482768 938.66518766 1067.11344495 C943.7149788 1067.11284693 948.76475592 1067.11374216 953.81454444 1067.11921513 C992.11230603 1067.22767323 992.11230603 1067.22767323 1030.3125 1064.75 C1032.23461304 1064.55821167 1032.23461304 1064.55821167 1034.19555664 1064.36254883 C1084.3526238 1059.15581704 1137.67485837 1045.12948573 1179 1015 C1179.60086426 1014.56606934 1180.20172852 1014.13213867 1180.82080078 1013.68505859 C1199.51329791 1000.14078091 1216.77034313 985.26954137 1231 967 C1232.14662109 965.59621094 1232.14662109 965.59621094 1233.31640625 964.1640625 C1268.70813106 919.9670129 1284.65989372 863.53796314 1290 808 C1290.08732895 807.09975098 1290.1746579 806.19950195 1290.26463318 805.27197266 C1290.92523605 797.97497617 1291.17357624 790.73887235 1291.203125 783.4140625 C1291.21013931 782.24657974 1291.21715363 781.07909698 1291.22438049 779.87623596 C1291.24179955 776.12578435 1291.24823343 772.37549059 1291.25 768.625 C1291.25067474 767.34444733 1291.25134949 766.06389465 1291.25204468 764.74453735 C1291.23630981 745.97254027 1290.87245583 727.5826874 1288 709 C1287.74259033 707.2677417 1287.74259033 707.2677417 1287.47998047 705.50048828 C1279.99423175 656.3112923 1262.91318576 608.03169205 1230 570 C1229.31808594 569.20722656 1228.63617187 568.41445313 1227.93359375 567.59765625 C1225.66594298 565.02097019 1223.34857314 562.50322651 1221 560 C1220.50935059 559.47535156 1220.01870117 558.95070313 1219.51318359 558.41015625 C1210.46513019 548.8165055 1200.72850422 540.65491909 1190 533 C1189.36449219 532.54641113 1188.72898438 532.09282227 1188.07421875 531.62548828 C1165.58708351 515.7602226 1141.01733378 504.69350444 1115 496 C1114.14519043 495.71382812 1113.29038086 495.42765625 1112.40966797 495.1328125 C1061.28601099 478.41911036 1006.75773511 477.8266196 953.54555334 477.88392727 C948.36317696 477.8883545 943.18080134 477.88682873 937.99842358 477.88610935 C927.9792035 477.88558181 917.95999253 477.89015864 907.94077478 477.89661068 C896.32977836 477.90386128 884.71878726 477.90460818 873.10778809 477.90539551 C842.5093573 477.91062816 811.91092851 477.92458942 781.3125 477.9375 C678.6928125 477.9684375 678.6928125 477.9684375 574 478 Z " fill="#E4E5E6" transform="translate(5087,181)"/>
<path d="M0 0 C0.63099609 0.30663574 1.26199219 0.61327148 1.91210938 0.92919922 C28.14713971 13.8260834 51.38498808 34.83719962 69 58 C70.02237411 59.30682221 71.04590712 60.61273822 72.0703125 61.91796875 C106.81956333 106.44856566 131.46157165 158.62386014 125.5390625 216.3515625 C124.94253253 220.95999321 124.06126596 225.47740434 123 230 C122.81727539 230.78181641 122.63455078 231.56363281 122.44628906 232.36914062 C117.7265589 251.63555966 109.21986634 270.33635314 97 286 C96.35289062 286.87785156 95.70578125 287.75570313 95.0390625 288.66015625 C88.64507789 296.97723584 80.91170578 303.88282493 73.2109375 310.96240234 C69.76427751 314.13884054 66.35247115 317.35208127 62.9375 320.5625 C61.61352994 321.80365075 60.28931129 323.04453638 58.96484375 324.28515625 C54.97573192 328.02255188 50.98777965 331.76118305 47 335.5 C45.66667174 336.75000541 44.33333841 338.00000541 43 339.25 C42.34 339.86875 41.68 340.4875 41 341.125 C-19.66666667 398 -80.33333333 454.875 -141 511.75 C-141.66008057 512.36883057 -142.32016113 512.98766113 -143.00024414 513.62524414 C-144.33274337 514.874452 -145.66526288 516.12363822 -146.99780273 517.37280273 C-150.34406511 520.50974485 -153.68996719 523.64706958 -157.03515625 526.78515625 C-164.13402898 533.44378881 -171.24036893 540.09423635 -178.35791016 546.73291016 C-184.91083961 552.84657542 -191.44768697 558.9773465 -197.98388672 565.10888672 C-201.32192668 568.23996658 -204.66101346 571.36992964 -208 574.5 C-209.33333841 575.74999459 -210.66667174 576.99999459 -212 578.25 C-288 649.5 -288 649.5 -364 720.75 C-364.66008057 721.36883057 -365.32016113 721.98766113 -366.00024414 722.62524414 C-367.33274337 723.874452 -368.66526288 725.12363822 -369.99780273 726.37280273 C-373.34406511 729.50974485 -376.68996719 732.64706958 -380.03515625 735.78515625 C-380.7017627 736.40898193 -381.36836914 737.03280762 -382.05517578 737.67553711 C-383.38616878 738.92672233 -384.71145601 740.18400699 -386.03076172 741.44750977 C-389.37804135 744.63719698 -392.76409675 747.64628678 -396.41015625 750.4921875 C-397.11712646 751.07154053 -397.82409668 751.65089355 -398.55249023 752.24780273 C-399.88614921 753.33512206 -401.25320907 754.38330874 -402.65649414 755.37915039 C-404.81083603 757.18209326 -405.81633509 758.43480372 -407 761 C-406.97468141 764.37374363 -406.97468141 764.37374363 -406.34195864 768.12110084 C-406.24143409 768.82408469 -406.14090954 769.52706853 -406.0373388 770.25135491 C-405.70916783 772.50396266 -405.35728301 774.75183949 -405 777 C-404.83519806 778.06401237 -404.83519806 778.06401237 -404.6670668 779.14951994 C-403.83717665 784.49346155 -402.94801089 789.82684004 -402.05209923 795.16004276 C-401.75445237 796.94676053 -401.45709204 798.73352604 -401.15998912 800.52033433 C-400.34656514 805.40729407 -399.52911596 810.29357298 -398.71098478 815.17974657 C-397.82020483 820.50428406 -396.93324139 825.8294575 -396.04579222 831.15455097 C-394.49119655 840.47964137 -392.93420868 849.80432986 -391.37564278 859.12875748 C-389.05808242 872.9941323 -386.74428785 886.86013369 -384.43130745 900.72627317 C-380.65917613 923.33941264 -376.88445297 945.95211859 -373.10812105 968.56455692 C-369.13097663 992.37949698 -365.15560442 1016.19473182 -361.18275833 1040.01038933 C-361.06297156 1040.72846308 -360.94318479 1041.44653684 -360.81976812 1042.18637041 C-359.35890348 1050.94371295 -357.89812015 1059.70106906 -356.43735894 1068.45842885 C-354.0845757 1082.56347817 -351.73158308 1096.66849255 -349.37858009 1110.77350521 C-349.25474003 1111.51586357 -349.13089997 1112.25822193 -349.00330718 1113.02307599 C-343.1123555 1148.33630968 -337.21966894 1183.6492538 -331.326375 1218.96209667 C-330.93544936 1221.30453941 -330.54452525 1223.64698241 -330.15360138 1225.98942545 C-324.26076683 1261.29965175 -318.36730053 1296.60977256 -312.47276757 1331.91971538 C-312.07974367 1334.2740413 -311.68672075 1336.62836738 -311.29369812 1338.98269351 C-310.6392811 1342.90285172 -309.98486339 1346.82300982 -309.33044547 1350.74316788 C-308.28532524 1357.00374939 -307.24020606 1363.26433107 -306.19508846 1369.52491302 C-305.8038133 1371.86877159 -305.41253697 1374.21262996 -305.02126057 1376.55648832 C-299.12838363 1411.85658055 -293.23638427 1447.15681882 -287.34783363 1482.45763302 C-287.16225021 1483.57016873 -287.16225021 1483.57016873 -286.97291762 1484.70517991 C-284.3791868 1500.25412497 -281.78567772 1515.80310701 -279.19247061 1531.35213942 C-277.97823639 1538.63275257 -276.76394214 1545.91335571 -275.54961014 1553.19395256 C-275.43005545 1553.91075451 -275.31050077 1554.62755646 -275.18732322 1555.36607968 C-271.33446718 1578.46606048 -267.47770161 1601.56538648 -263.61878721 1624.66435592 C-259.62630747 1648.56287182 -255.63766135 1672.46202401 -251.65359972 1696.3619448 C-249.35546939 1710.14734281 -247.05412253 1723.9321951 -244.74826132 1737.71630213 C-243.21018617 1746.91258123 -241.67619205 1756.10953488 -240.14556945 1765.30705729 C-239.2722025 1770.55438172 -238.39700232 1775.80138283 -237.51682715 1781.04756994 C-236.71690171 1785.8156414 -235.92216322 1790.58454665 -235.13163348 1795.35418462 C-234.84581358 1797.07294609 -234.55806976 1798.79138895 -234.26821446 1800.50947448 C-233.87589272 1802.83659183 -233.49056887 1805.16476455 -233.10697973 1807.49333483 C-232.89155002 1808.78392623 -232.67612032 1810.07451764 -232.45416244 1811.40421787 C-231.28544937 1820.65737751 -231.28544937 1820.65737751 -232.99047852 1823.86108398 C-233.67775024 1824.54666382 -233.67775024 1824.54666382 -234.37890625 1825.24609375 C-234.88421875 1825.76872803 -235.38953125 1826.2913623 -235.91015625 1826.82983398 C-236.45542969 1827.36036377 -237.00070313 1827.89089355 -237.5625 1828.4375 C-238.67900529 1829.58272934 -239.7948947 1830.72855944 -240.91015625 1831.875 C-241.71864014 1832.68904297 -241.71864014 1832.68904297 -242.54345703 1833.51953125 C-244.26474978 1835.26909867 -245.89530808 1837.08069937 -247.5 1838.9375 C-248.03109375 1839.54980469 -248.5621875 1840.16210938 -249.109375 1840.79296875 C-250.64400503 1842.58442736 -252.17446318 1844.37923665 -253.703125 1846.17578125 C-259.53233688 1853.01819056 -265.45532531 1859.74117661 -271.5546875 1866.34375 C-275.71504527 1870.86298847 -279.72685535 1875.50178609 -283.70703125 1880.1796875 C-289.0521871 1886.45439773 -294.45915786 1892.63654327 -300.06982422 1898.67529297 C-302.96748224 1901.81503117 -305.70346573 1905.04166489 -308.375 1908.375 C-312.98571639 1914.10522487 -317.97756638 1919.43085078 -323.00390625 1924.79296875 C-327.38116714 1929.4639332 -331.5514289 1934.29747541 -335.69921875 1939.171875 C-341.53018213 1946.01518479 -347.45408334 1952.73983217 -353.5546875 1959.34375 C-357.71504527 1963.86298847 -361.72685535 1968.50178609 -365.70703125 1973.1796875 C-371.5344906 1980.02119707 -377.45656731 1986.74252108 -383.5546875 1993.34375 C-387.71504527 1997.86298847 -391.72685535 2002.50178609 -395.70703125 2007.1796875 C-400.61120884 2012.93673072 -405.538234 2018.64746182 -410.6875 2024.1875 C-415.06071991 2028.89566306 -419.09093012 2033.74344258 -423.02734375 2038.8203125 C-424.97842435 2040.97615997 -426.40828654 2041.80714424 -429 2043 C-429.54805298 2041.79114136 -429.54805298 2041.79114136 -430.10717773 2040.55786133 C-437.88745159 2023.40318287 -445.70457128 2006.2661469 -453.5793457 1989.15463257 C-458.56246108 1978.32506445 -463.51507655 1967.48227893 -468.4375 1956.625 C-474.28674807 1943.72408883 -480.20959341 1930.85814878 -486.15548706 1918.00152588 C-491.61816128 1906.18773552 -497.03458099 1894.3542203 -502.40673828 1882.49902344 C-507.55438781 1871.14269517 -512.76621019 1859.81686268 -518 1848.5 C-523.56050832 1836.47611164 -529.09203729 1824.44013598 -534.5625 1812.375 C-539.82150559 1800.776523 -545.11527488 1789.19460942 -550.4375 1777.625 C-555.97359259 1765.59026132 -561.49686989 1753.54984895 -567 1741.5 C-572.48407279 1729.49264944 -577.9853807 1717.49335154 -583.5 1705.5 C-589.03381171 1693.4642471 -594.55674622 1681.42361554 -600.0625 1669.375 C-600.39105988 1668.65600525 -600.71961975 1667.9370105 -601.05813599 1667.19622803 C-603.70261258 1661.40886495 -606.34614061 1655.62106873 -608.98962402 1649.83325195 C-611.30513417 1644.76362966 -613.62102928 1639.69418346 -615.9375 1634.625 C-616.26597931 1633.90616638 -616.59445862 1633.18733276 -616.93289185 1632.44671631 C-622.10745509 1621.1244786 -627.29976771 1609.8104682 -632.5 1598.5 C-638.03371759 1586.46420365 -643.5567461 1574.4236158 -649.0625 1562.375 C-649.39105988 1561.65600525 -649.71961975 1560.9370105 -650.05813599 1560.19622803 C-652.70261258 1554.40886495 -655.34614061 1548.62106873 -657.98962402 1542.83325195 C-660.30513417 1537.76362966 -662.62102928 1532.69418346 -664.9375 1527.625 C-665.26597931 1526.90616638 -665.59445862 1526.18733276 -665.93289185 1525.44671631 C-671.46316219 1513.34617131 -677.0144291 1501.25534769 -682.57247925 1489.1675415 C-688.06081053 1477.23076085 -693.53087259 1465.28575996 -698.98873901 1453.33502197 C-704.52000668 1441.22440311 -710.07698325 1429.12574817 -715.6411438 1417.0302124 C-720.910725 1405.57270348 -726.14213314 1394.09845554 -731.34988403 1382.61273193 C-736.89679407 1370.38347241 -742.51877658 1358.18961154 -748.15548706 1346.00152588 C-753.61816128 1334.18773552 -759.03458099 1322.3542203 -764.40673828 1310.49902344 C-769.55438781 1299.14269517 -774.76621019 1287.81686268 -780 1276.5 C-785.86773433 1263.81177467 -791.6968216 1251.1072711 -797.46908569 1238.37533569 C-802.54895489 1227.17171829 -807.67105717 1215.98798937 -812.8125 1204.8125 C-818.91052198 1191.55762947 -824.98251727 1178.2916879 -831 1165 C-833.23199491 1164.77381214 -833.23199491 1164.77381214 -835.1015625 1166.94140625 C-835.93429688 1167.80636719 -836.76703125 1168.67132812 -837.625 1169.5625 C-841.33215581 1173.34966636 -845.11283915 1176.91218902 -849.13671875 1180.35546875 C-851.61630858 1182.5439537 -853.9062118 1184.89544013 -856.22265625 1187.25390625 C-858.06593574 1189.06477643 -859.97822799 1190.75321354 -861.9375 1192.4375 C-864.74576347 1194.85617779 -867.39970593 1197.35899683 -870 1200 C-873.2215855 1203.27202128 -876.58592145 1206.29316055 -880.06640625 1209.28515625 C-882.56431556 1211.5004738 -884.88024989 1213.8689817 -887.21875 1216.25 C-889.71896185 1218.70634849 -892.37680516 1220.96309368 -895.03125 1223.25 C-896.93023071 1224.93798286 -898.72005988 1226.68769734 -900.5 1228.5 C-902.89053167 1230.93389732 -905.35046262 1233.21355559 -907.9375 1235.4375 C-910.74576347 1237.85617779 -913.39970593 1240.35899683 -916 1243 C-919.2215855 1246.27202128 -922.58592145 1249.29316055 -926.06640625 1252.28515625 C-927.95494597 1253.96004299 -929.73155648 1255.69947587 -931.5 1257.5 C-933.89053167 1259.93389732 -936.35046262 1262.21355559 -938.9375 1264.4375 C-941.74576347 1266.85617779 -944.39970593 1269.35899683 -947 1272 C-950.2215855 1275.27202128 -953.58592145 1278.29316055 -957.06640625 1281.28515625 C-959.56431556 1283.5004738 -961.88024989 1285.8689817 -964.21875 1288.25 C-966.71896185 1290.70634849 -969.37680516 1292.96309368 -972.03125 1295.25 C-973.93023071 1296.93798286 -975.72005988 1298.68769734 -977.5 1300.5 C-979.89053167 1302.93389732 -982.35046262 1305.21355559 -984.9375 1307.4375 C-987.74576347 1309.85617779 -990.39970593 1312.35899683 -993 1315 C-996.2215855 1318.27202128 -999.58592145 1321.29316055 -1003.06640625 1324.28515625 C-1004.95494597 1325.96004299 -1006.73155648 1327.69947587 -1008.5 1329.5 C-1010.89053167 1331.93389732 -1013.35046262 1334.21355559 -1015.9375 1336.4375 C-1018.74576347 1338.85617779 -1021.39970593 1341.35899683 -1024 1344 C-1027.2215855 1347.27202128 -1030.58592145 1350.29316055 -1034.06640625 1353.28515625 C-1035.95494597 1354.96004299 -1037.73155648 1356.69947587 -1039.5 1358.5 C-1041.89053167 1360.93389732 -1044.35046262 1363.21355559 -1046.9375 1365.4375 C-1049.74576347 1367.85617779 -1052.39970593 1370.35899683 -1055 1373 C-1058.2215855 1376.27202128 -1061.58592145 1379.29316055 -1065.06640625 1382.28515625 C-1067.56431556 1384.5004738 -1069.88024989 1386.8689817 -1072.21875 1389.25 C-1074.71896185 1391.70634849 -1077.37680516 1393.96309368 -1080.03125 1396.25 C-1081.93023071 1397.93798286 -1083.72005988 1399.68769734 -1085.5 1401.5 C-1087.89053167 1403.93389732 -1090.35046262 1406.21355559 -1092.9375 1408.4375 C-1095.74576347 1410.85617779 -1098.39970593 1413.35899683 -1101 1416 C-1104.2215855 1419.27202128 -1107.58592145 1422.29316055 -1111.06640625 1425.28515625 C-1112.95494597 1426.96004299 -1114.73155648 1428.69947587 -1116.5 1430.5 C-1118.89053167 1432.93389732 -1121.35046262 1435.21355559 -1123.9375 1437.4375 C-1126.74576347 1439.85617779 -1129.39970593 1442.35899683 -1132 1445 C-1135.2215855 1448.27202128 -1138.58592145 1451.29316055 -1142.06640625 1454.28515625 C-1144.56431556 1456.5004738 -1146.88024989 1458.8689817 -1149.21875 1461.25 C-1151.71896185 1463.70634849 -1154.37680516 1465.96309368 -1157.03125 1468.25 C-1158.93023071 1469.93798286 -1160.72005988 1471.68769734 -1162.5 1473.5 C-1164.89053167 1475.93389732 -1167.35046262 1478.21355559 -1169.9375 1480.4375 C-1172.74576347 1482.85617779 -1175.39970593 1485.35899683 -1178 1488 C-1181.2215855 1491.27202128 -1184.58592145 1494.29316055 -1188.06640625 1497.28515625 C-1189.95494597 1498.96004299 -1191.73155648 1500.69947587 -1193.5 1502.5 C-1195.89053167 1504.93389732 -1198.35046262 1507.21355559 -1200.9375 1509.4375 C-1203.74576347 1511.85617779 -1206.39970593 1514.35899683 -1209 1517 C-1212.2215855 1520.27202128 -1215.58592145 1523.29316055 -1219.06640625 1526.28515625 C-1221.56431556 1528.5004738 -1223.88024989 1530.8689817 -1226.21875 1533.25 C-1228.71896185 1535.70634849 -1231.37680516 1537.96309368 -1234.03125 1540.25 C-1235.93023071 1541.93798286 -1237.72005988 1543.68769734 -1239.5 1545.5 C-1241.89053167 1547.93389732 -1244.35046262 1550.21355559 -1246.9375 1552.4375 C-1249.74576347 1554.85617779 -1252.39970593 1557.35899683 -1255 1560 C-1258.2215855 1563.27202128 -1261.58592145 1566.29316055 -1265.06640625 1569.28515625 C-1266.95494597 1570.96004299 -1268.73155648 1572.69947587 -1270.5 1574.5 C-1272.89053167 1576.93389732 -1275.35046262 1579.21355559 -1277.9375 1581.4375 C-1280.74576347 1583.85617779 -1283.39970593 1586.35899683 -1286 1589 C-1289.2215855 1592.27202128 -1292.58592145 1595.29316055 -1296.06640625 1598.28515625 C-1297.95494597 1599.96004299 -1299.73155648 1601.69947587 -1301.5 1603.5 C-1303.89053167 1605.93389732 -1306.35046262 1608.21355559 -1308.9375 1610.4375 C-1311.74576347 1612.85617779 -1314.39970593 1615.35899683 -1317 1618 C-1320.2215855 1621.27202128 -1323.58592145 1624.29316055 -1327.06640625 1627.28515625 C-1329.56431556 1629.5004738 -1331.88024989 1631.8689817 -1334.21875 1634.25 C-1336.71896185 1636.70634849 -1339.37680516 1638.96309368 -1342.03125 1641.25 C-1343.93023071 1642.93798286 -1345.72005988 1644.68769734 -1347.5 1646.5 C-1349.89053167 1648.93389732 -1352.35046262 1651.21355559 -1354.9375 1653.4375 C-1357.74576347 1655.85617779 -1360.39970593 1658.35899683 -1363 1661 C-1366.2215855 1664.27202128 -1369.58592145 1667.29316055 -1373.06640625 1670.28515625 C-1375.56431556 1672.5004738 -1377.88024989 1674.8689817 -1380.21875 1677.25 C-1382.71896185 1679.70634849 -1385.37680516 1681.96309368 -1388.03125 1684.25 C-1389.93023071 1685.93798286 -1391.72005988 1687.68769734 -1393.5 1689.5 C-1395.89053167 1691.93389732 -1398.35046262 1694.21355559 -1400.9375 1696.4375 C-1404.45460764 1699.46479768 -1407.72061018 1702.67239079 -1410.9453125 1706.0078125 C-1413 1708 -1413 1708 -1416.21972656 1709.89624023 C-1418.33070875 1711.68872873 -1418.95677043 1712.48144 -1419.18954468 1715.27368164 C-1418.81111201 1718.45036197 -1418.20557788 1721.52290553 -1417.5390625 1724.65234375 C-1417.15894436 1726.6582738 -1416.77894698 1728.66422757 -1416.4011097 1730.67058849 C-1415.95526303 1733.0109768 -1415.49419669 1735.3480579 -1415.03186035 1737.6852417 C-1413.87385575 1743.58885506 -1412.8093452 1749.5083561 -1411.74902344 1755.43017578 C-1409.98064294 1765.29241385 -1408.1977428 1775.15183425 -1406.39746094 1785.00830078 C-1406.15122465 1786.3569131 -1405.90499618 1787.70552686 -1405.65877533 1789.054142 C-1405.28202985 1791.11757785 -1404.90526469 1793.18101009 -1404.52843618 1795.24443078 C-1403.08729224 1803.13632978 -1401.64950418 1811.02883971 -1400.21191406 1818.92138672 C-1400.07819743 1819.65549223 -1399.9444808 1820.38959775 -1399.80671215 1821.14594889 C-1399.259562 1824.14983937 -1398.71242325 1827.15373193 -1398.16532373 1830.15763164 C-1397.32581885 1834.76697468 -1396.48609253 1839.37627731 -1395.64621019 1843.9855516 C-1391.36357157 1867.48939875 -1387.0951815 1890.99580883 -1382.8359375 1914.50390625 C-1382.68752458 1915.32303128 -1382.53911166 1916.1421563 -1382.38620138 1916.9861033 C-1380.17347227 1929.19894898 -1377.96162973 1941.41195519 -1375.75 1953.625 C-1375.19196063 1956.70655406 -1374.63391432 1959.78810686 -1374.0758667 1962.86965942 C-1373.93988363 1963.62057438 -1373.80390055 1964.37148934 -1373.66379678 1965.1451593 C-1372.98536093 1968.89150842 -1372.30685816 1972.63784539 -1371.62822151 1976.38415813 C-1371.35996467 1977.86505797 -1371.09170943 1979.3459581 -1370.82345581 1980.82685852 C-1370.6914341 1981.55568062 -1370.5594124 1982.28450272 -1370.42339003 1983.03541034 C-1369.6372705 1987.37564653 -1368.85184787 1991.71600814 -1368.06697857 1996.05647057 C-1365.38787467 2010.87132606 -1362.69496464 2025.6834663 -1359.97107077 2040.49015832 C-1359.12156296 2045.11084974 -1358.27469327 2049.73202559 -1357.42778516 2054.35319412 C-1356.62408071 2058.7364524 -1355.81568225 2063.11881078 -1355.00368404 2067.50053978 C-1354.62646261 2069.54067927 -1354.2516583 2071.58124496 -1353.87793732 2073.62202835 C-1353.42411343 2076.100046 -1352.96643488 2078.57736212 -1352.50414276 2081.05381393 C-1352.30452187 2082.15048008 -1352.10490097 2083.24714622 -1351.89923096 2084.37704468 C-1351.72450886 2085.3239385 -1351.54978676 2086.27083233 -1351.36977005 2087.24641991 C-1350.32913007 2094.99579157 -1350.32913007 2094.99579157 -1352.25 2097.87109375 C-1352.8275 2098.38800781 -1353.405 2098.90492188 -1354 2099.4375 C-1354.639375 2100.02402344 -1355.27875 2100.61054688 -1355.9375 2101.21484375 C-1356.618125 2101.80394531 -1357.29875 2102.39304687 -1358 2103 C-1358.66 2103.57878906 -1359.32 2104.15757812 -1360 2104.75390625 C-1361.33989685 2105.92369901 -1362.68369888 2107.08903288 -1364.03125 2108.25 C-1365.93023071 2109.93798286 -1367.72005988 2111.68769734 -1369.5 2113.5 C-1372.53832417 2116.59356643 -1375.7476532 2119.42105507 -1379.03125 2122.25 C-1380.93023071 2123.93798286 -1382.72005988 2125.68769734 -1384.5 2127.5 C-1387.53832417 2130.59356643 -1390.7476532 2133.42105507 -1394.03125 2136.25 C-1395.93023071 2137.93798286 -1397.72005988 2139.68769734 -1399.5 2141.5 C-1401.89053167 2143.93389732 -1404.35046262 2146.21355559 -1406.9375 2148.4375 C-1409.74576347 2150.85617779 -1412.39970593 2153.35899683 -1415 2156 C-1418.2215855 2159.27202128 -1421.58592145 2162.29316055 -1425.06640625 2165.28515625 C-1427.56431556 2167.5004738 -1429.88024989 2169.8689817 -1432.21875 2172.25 C-1434.71896185 2174.70634849 -1437.37680516 2176.96309368 -1440.03125 2179.25 C-1441.93023071 2180.93798286 -1443.72005988 2182.68769734 -1445.5 2184.5 C-1448.53832417 2187.59356643 -1451.7476532 2190.42105507 -1455.03125 2193.25 C-1456.93023071 2194.93798286 -1458.72005988 2196.68769734 -1460.5 2198.5 C-1463.53832417 2201.59356643 -1466.7476532 2204.42105507 -1470.03125 2207.25 C-1471.93023071 2208.93798286 -1473.72005988 2210.68769734 -1475.5 2212.5 C-1477.89053167 2214.93389732 -1480.35046262 2217.21355559 -1482.9375 2219.4375 C-1486.4565453 2222.46835405 -1489.71212901 2225.69168661 -1492.96875 2229 C-1496.17533699 2232.15725488 -1499.57422412 2235.08444606 -1503 2238 C-1505.84474988 2235.54037436 -1507.04864942 2233.02841361 -1508.50390625 2229.5859375 C-1508.98754639 2228.45438232 -1509.47118652 2227.32282715 -1509.96948242 2226.15698242 C-1510.22732513 2225.54470795 -1510.48516785 2224.93243347 -1510.75082397 2224.30160522 C-1511.87834889 2221.62529678 -1513.02243008 2218.95616349 -1514.1655426 2216.28648376 C-1514.78807656 2214.83243211 -1515.40983056 2213.37804633 -1516.03086853 2211.9233551 C-1519.48241481 2203.84617433 -1523.01563194 2195.80523771 -1526.55319214 2187.76544189 C-1527.70036873 2185.15825323 -1528.84654158 2182.55062544 -1529.99243164 2179.94287109 C-1531.55110165 2176.39585064 -1533.11012533 2172.84898601 -1534.66943359 2169.30224609 C-1538.07589026 2161.55325475 -1541.47783607 2153.80228332 -1544.8800354 2146.05142212 C-1546.75316389 2141.78419666 -1548.6265977 2137.51710525 -1550.5 2133.25 C-1551.25000146 2131.54166731 -1552.00000146 2129.83333397 -1552.75 2128.125 C-1553.12125 2127.279375 -1553.4925 2126.43375 -1553.875 2125.5625 C-1629.25000008 1953.87499981 -1629.25000008 1953.87499981 -1630.37496948 1951.31256104 C-1631.12506289 1949.6040206 -1631.87516461 1947.89548382 -1632.62527466 1946.18695068 C-1634.49891378 1941.91931594 -1636.37240883 1937.65161805 -1638.24560547 1933.38378906 C-1641.63663444 1925.6581661 -1645.02857111 1917.93295017 -1648.42625427 1910.21025085 C-1649.56906658 1907.61220744 -1650.71093031 1905.01374841 -1651.8527832 1902.4152832 C-1653.35722295 1898.99253651 -1654.86668599 1895.57206768 -1656.37963867 1892.15307617 C-1659.73534325 1884.55404731 -1663.04961205 1876.94644894 -1666.18554688 1869.25363159 C-1667.55424607 1865.89748043 -1668.94349882 1862.54997621 -1670.33270264 1859.20227051 C-1670.9705939 1857.6464246 -1671.59769456 1856.08609643 -1672.21221924 1854.52087402 C-1676.55539115 1843.46160413 -1682.08784397 1835.67700593 -1690.60183716 1827.38516235 C-1692.41545243 1825.58841055 -1694.09132074 1823.68960319 -1695.75 1821.75 C-1698.29711438 1818.79938235 -1700.88752237 1815.89301214 -1703.5 1813 C-1706.18983431 1810.01937279 -1708.86310364 1807.02754767 -1711.5 1804 C-1715.61081039 1799.28298716 -1719.80667845 1794.64361111 -1724 1790 C-1728.76786975 1784.72014424 -1733.51512218 1779.42708194 -1738.1875 1774.0625 C-1740.27211164 1771.69035571 -1742.38428644 1769.34443935 -1744.5 1767 C-1747.76390848 1763.38323655 -1750.98790949 1759.73610392 -1754.1875 1756.0625 C-1756.27211164 1753.69035571 -1758.38428644 1751.34443935 -1760.5 1749 C-1763.18983431 1746.01937279 -1765.86310364 1743.02754767 -1768.5 1740 C-1772.61081039 1735.28298716 -1776.80667845 1730.64361111 -1781 1726 C-1785.76786975 1720.72014424 -1790.51512218 1715.42708194 -1795.1875 1710.0625 C-1797.27211164 1707.69035571 -1799.38428644 1705.34443935 -1801.5 1703 C-1802.2528125 1702.16339844 -1803.005625 1701.32679687 -1803.78125 1700.46484375 C-1805.21587071 1698.87110138 -1806.65319134 1697.27978343 -1808.09375 1695.69140625 C-1808.7228125 1694.98886719 -1809.351875 1694.28632812 -1810 1693.5625 C-1810.8353125 1692.63630859 -1810.8353125 1692.63630859 -1811.6875 1691.69140625 C-1813 1690 -1813 1690 -1814 1687 C-1815.97281579 1686.25673537 -1817.97915802 1685.60053486 -1820 1685 C-1821.80883849 1684.180428 -1823.60113923 1683.32358759 -1825.37712097 1682.43505859 C-1826.93858101 1681.65747444 -1826.93858101 1681.65747444 -1828.53158569 1680.86418152 C-1829.65835724 1680.29798599 -1830.78512878 1679.73179047 -1831.94604492 1679.1484375 C-1833.15729711 1678.54334848 -1834.36872252 1677.93860611 -1835.58030701 1677.33418274 C-1838.86395365 1675.69477802 -1842.14508373 1674.0503948 -1845.42572951 1672.40499496 C-1848.88017819 1670.67335687 -1852.33675289 1668.9459723 -1855.79304504 1667.21801758 C-1861.61071219 1664.30871582 -1867.42682423 1661.39632471 -1873.24194336 1658.48193359 C-1879.91549224 1655.13734684 -1886.59108148 1651.79686379 -1893.26790541 1648.45882034 C-1900.42473929 1644.88074478 -1907.58003471 1641.2996009 -1914.73490357 1637.71759796 C-1916.76967519 1636.69915884 -1918.80472133 1635.68127017 -1920.83983421 1634.66351318 C-1944.95973702 1622.59901559 -1944.95973702 1622.59901559 -1955.20043945 1617.14648438 C-1968.85676594 1609.88344379 -1982.74875968 1603.07192081 -1996.59014893 1596.17069435 C-2000.68466003 1594.12850405 -2004.77782401 1592.0836174 -2008.87109375 1590.03894043 C-2019.24619745 1584.85689185 -2029.623002 1579.67825396 -2040 1574.5 C-2051.21090292 1568.90561688 -2062.42148875 1563.31060336 -2073.63011169 1557.71165323 C-2077.68361106 1555.68696365 -2081.73752595 1553.66311606 -2085.79248047 1551.64134216 C-2115.05299079 1537.05190075 -2115.05299079 1537.05190075 -2127.65525627 1530.3471899 C-2135.17156704 1526.35409806 -2142.79116129 1522.57694861 -2150.4235878 1518.81175423 C-2152.96421721 1517.55746745 -2155.50264804 1516.29882796 -2158.04049683 1515.03892517 C-2165.23803257 1511.46574578 -2172.4364102 1507.89435676 -2179.64306641 1504.33959961 C-2184.09125614 1502.14509476 -2188.53456946 1499.94099052 -2192.97475815 1497.73034477 C-2194.6579357 1496.89462915 -2196.34292174 1496.06254568 -2198.02972794 1495.23417854 C-2200.36707925 1494.08587733 -2202.69802203 1492.92547053 -2205.02783203 1491.76196289 C-2205.72374451 1491.42378036 -2206.41965698 1491.08559784 -2207.13665771 1490.73716736 C-2211.88598281 1488.34205157 -2211.88598281 1488.34205157 -2213 1485 C-2212.00033203 1484.19949219 -2212.00033203 1484.19949219 -2210.98046875 1483.3828125 C-2206.02291059 1479.37516409 -2201.19061256 1475.31834172 -2196.5 1471 C-2192.05272888 1466.90648909 -2187.45282537 1463.07557501 -2182.75 1459.28125 C-2179.91900422 1456.93281032 -2177.20616402 1454.49090098 -2174.5 1452 C-2170.05272888 1447.90648909 -2165.45282537 1444.07557501 -2160.75 1440.28125 C-2157.91900422 1437.93281032 -2155.20616402 1435.49090098 -2152.5 1433 C-2148.05272888 1428.90648909 -2143.45282537 1425.07557501 -2138.75 1421.28125 C-2135.91900422 1418.93281032 -2133.20616402 1416.49090098 -2130.5 1414 C-2126.05272888 1409.90648909 -2121.45282537 1406.07557501 -2116.75 1402.28125 C-2113.91900422 1399.93281032 -2111.20616402 1397.49090098 -2108.5 1395 C-2104.0301488 1390.88621091 -2099.40955107 1387.02912703 -2094.68359375 1383.21484375 C-2092.05291443 1381.04367173 -2089.52057576 1378.79758643 -2087 1376.5 C-2083.60401318 1373.40444804 -2080.13828469 1370.44848793 -2076.5625 1367.5625 C-2072.75912497 1364.48663412 -2069.09917348 1361.31246834 -2065.5 1358 C-2061.01286824 1353.87081608 -2056.39425276 1349.97667357 -2051.6171875 1346.1875 C-2048.97269538 1344.05425582 -2048.97269538 1344.05425582 -2046.6953125 1341.625 C-2045.97085938 1340.8825 -2045.24640625 1340.14 -2044.5 1339.375 C-2043.58734375 1338.36566406 -2043.58734375 1338.36566406 -2042.65625 1337.3359375 C-2035.09428491 1333.53271388 -2023.0861764 1338.11624839 -2015.26542664 1339.8848877 C-2013.90740558 1340.18673807 -2012.54924904 1340.48797944 -2011.19097072 1340.78867006 C-2007.4862929 1341.61061636 -2003.78357291 1342.44108985 -2000.08113182 1343.27304482 C-1996.07752278 1344.17106819 -1992.07212446 1345.06104439 -1988.06694031 1345.95201111 C-1981.13565659 1347.49502793 -1974.20550468 1349.04304252 -1967.27609825 1350.59446716 C-1957.25101373 1352.83894543 -1947.22416129 1355.07544032 -1937.19685397 1357.30996448 C-1920.91773604 1360.93786103 -1904.63994628 1364.57168001 -1888.36303711 1368.20947266 C-1872.57093033 1371.73889691 -1856.77838202 1375.26633215 -1840.98510742 1378.79052734 C-1840.01165525 1379.00774989 -1839.03820308 1379.22497244 -1838.03525236 1379.4487775 C-1827.40850875 1381.82004094 -1816.78164409 1384.19076156 -1806.15469837 1386.56111908 C-1803.33642823 1387.18974631 -1800.5181581 1387.81837354 -1797.69988807 1388.44700128 C-1795.8422218 1388.86135608 -1793.9845533 1389.27570088 -1792.12688253 1389.69003552 C-1781.20055719 1392.12707336 -1770.274604 1394.56576561 -1759.34930579 1397.00740421 C-1752.50062851 1398.53797152 -1745.6517352 1400.06756907 -1738.80267157 1401.59640658 C-1734.09123726 1402.64816278 -1729.38010369 1403.70125194 -1724.66920183 1404.75539032 C-1721.81102004 1405.39459755 -1718.9525407 1406.0324658 -1716.09397171 1406.66993898 C-1714.16506505 1407.10051144 -1712.23651916 1407.53269914 -1710.30798644 1407.96494341 C-1709.16027009 1408.22060564 -1708.01255373 1408.47626786 -1706.8300581 1408.73967743 C-1705.34784056 1409.07092975 -1705.34784056 1409.07092975 -1703.83567923 1409.40887403 C-1698.39834207 1410.96122056 -1698.39834207 1410.96122056 -1693.17993164 1410.05053711 C-1692.67840576 1409.5478833 -1692.17687988 1409.04522949 -1691.66015625 1408.52734375 C-1691.08007812 1407.96466797 -1690.5 1407.40199219 -1689.90234375 1406.82226562 C-1689.29519531 1406.20029297 -1688.68804688 1405.57832031 -1688.0625 1404.9375 C-1686.73091616 1403.63365749 -1685.39887212 1402.33028485 -1684.06640625 1401.02734375 C-1683.05344482 1400.01969971 -1683.05344482 1400.01969971 -1682.02001953 1398.99169922 C-1678.9102978 1395.92557523 -1675.70476638 1392.96606421 -1672.5 1390 C-1671.24946344 1388.83390848 -1669.99946489 1387.66723973 -1668.75 1386.5 C-1666.25 1384.16666667 -1663.75 1381.83333333 -1661.25 1379.5 C-1660.63108887 1378.92233887 -1660.01217773 1378.34467773 -1659.37451172 1377.74951172 C-1658.12618263 1376.58442625 -1656.87781033 1375.41938709 -1655.62939453 1374.25439453 C-1652.47847112 1371.31391631 -1649.32833434 1368.37260346 -1646.1796875 1365.4296875 C-1640.32282296 1359.95692884 -1634.45915794 1354.49238477 -1628.5625 1349.0625 C-1622.35363077 1343.34390545 -1616.19713204 1337.5703165 -1610.04296875 1331.79296875 C-1604.3266856 1326.42736101 -1598.59231203 1321.08116184 -1592.85888672 1315.73388672 C-1590.36430588 1313.40705284 -1587.87047378 1311.07941739 -1585.37670898 1308.75170898 C-1584.12758768 1307.5857866 -1582.87840168 1306.4199335 -1581.62915039 1305.25415039 C-1578.47829737 1302.31376531 -1575.32825031 1299.37252492 -1572.1796875 1296.4296875 C-1566.32282296 1290.95692884 -1560.45915794 1285.49238477 -1554.5625 1280.0625 C-1548.35363077 1274.34390545 -1542.19713204 1268.5703165 -1536.04296875 1262.79296875 C-1530.3266856 1257.42736101 -1524.59231203 1252.08116184 -1518.85888672 1246.73388672 C-1516.36430588 1244.40705284 -1513.87047378 1242.07941739 -1511.37670898 1239.75170898 C-1510.12758768 1238.5857866 -1508.87840168 1237.4199335 -1507.62915039 1236.25415039 C-1504.47829737 1233.31376531 -1501.32825031 1230.37252492 -1498.1796875 1227.4296875 C-1492.32282296 1221.95692884 -1486.45915794 1216.49238477 -1480.5625 1211.0625 C-1474.35363077 1205.34390545 -1468.19713204 1199.5703165 -1462.04296875 1193.79296875 C-1456.3266856 1188.42736101 -1450.59231203 1183.08116184 -1444.85888672 1177.73388672 C-1442.36430588 1175.40705284 -1439.87047378 1173.07941739 -1437.37670898 1170.75170898 C-1436.12758768 1169.5857866 -1434.87840168 1168.4199335 -1433.62915039 1167.25415039 C-1430.47829737 1164.31376531 -1427.32825031 1161.37252492 -1424.1796875 1158.4296875 C-1418.32282296 1152.95692884 -1412.45915794 1147.49238477 -1406.5625 1142.0625 C-1400.35363077 1136.34390545 -1394.19713204 1130.5703165 -1388.04296875 1124.79296875 C-1382.32970282 1119.43019314 -1376.59817576 1114.0870194 -1370.86767578 1108.74267578 C-1368.97207802 1106.97394678 -1367.07767412 1105.20394751 -1365.18359375 1103.43359375 C-1359.32555528 1097.95939399 -1353.4605125 1092.4936321 -1347.5625 1087.0625 C-1341.35363077 1081.34390545 -1335.19713204 1075.5703165 -1329.04296875 1069.79296875 C-1323.3266856 1064.42736101 -1317.59231203 1059.08116184 -1311.85888672 1053.73388672 C-1309.36430588 1051.40705284 -1306.87047378 1049.07941739 -1304.37670898 1046.75170898 C-1303.12758768 1045.5857866 -1301.87840168 1044.4199335 -1300.62915039 1043.25415039 C-1297.47829737 1040.31376531 -1294.32825031 1037.37252492 -1291.1796875 1034.4296875 C-1285.32282296 1028.95692884 -1279.45915794 1023.49238477 -1273.5625 1018.0625 C-1267.35363077 1012.34390545 -1261.19713204 1006.5703165 -1255.04296875 1000.79296875 C-1249.32970282 995.43019314 -1243.59817576 990.0870194 -1237.86767578 984.74267578 C-1235.97207802 982.97394678 -1234.07767412 981.20394751 -1232.18359375 979.43359375 C-1226.32555528 973.95939399 -1220.4605125 968.4936321 -1214.5625 963.0625 C-1208.35363077 957.34390545 -1202.19713204 951.5703165 -1196.04296875 945.79296875 C-1190.3266856 940.42736101 -1184.59231203 935.08116184 -1178.85888672 929.73388672 C-1176.36430588 927.40705284 -1173.87047378 925.07941739 -1171.37670898 922.75170898 C-1170.12758768 921.5857866 -1168.87840168 920.4199335 -1167.62915039 919.25415039 C-1164.47829737 916.31376531 -1161.32825031 913.37252492 -1158.1796875 910.4296875 C-1157.54957764 909.84098877 -1156.91946777 909.25229004 -1156.27026367 908.64575195 C-1155.0175354 907.47532323 -1153.76508894 906.30459281 -1152.51293945 905.13354492 C-1149.43578144 902.25916906 -1146.34805901 899.39767415 -1143.23828125 896.55859375 C-1142.64031738 896.01154785 -1142.04235352 895.46450195 -1141.42626953 894.90087891 C-1140.29826282 893.87043638 -1139.16786519 892.84260276 -1138.03466797 891.81787109 C-1135.65548084 889.64311556 -1133.80000069 887.70000103 -1132 885 C-1132.5669458 884.71914551 -1133.1338916 884.43829102 -1133.71801758 884.14892578 C-1143.42191639 879.33554203 -1153.1189763 874.51586504 -1162.6875 869.4375 C-1171.70983985 864.65051863 -1180.78928928 859.97765296 -1189.875 855.3125 C-1192.9427561 853.73707216 -1196.01047201 852.1615661 -1199.078125 850.5859375 C-1199.83629013 850.19653992 -1200.59445526 849.80714233 -1201.37559509 849.40594482 C-1208.4656787 845.76319121 -1215.54655517 842.1028066 -1222.625 838.4375 C-1232.95145564 833.09074173 -1243.28588457 827.75973061 -1253.625 822.4375 C-1264.67941611 816.74686801 -1275.72369071 811.03731808 -1286.75830078 805.30834961 C-1295.66297238 800.68757906 -1304.58005887 796.09120648 -1313.5 791.5 C-1323.50805322 786.34872847 -1333.51016486 781.18654036 -1343.5 776 C-1353.44858031 770.8351069 -1363.40870389 765.69310063 -1373.375 760.5625 C-1383.8381621 755.17597191 -1394.29804246 749.78324103 -1404.75 744.375 C-1405.34218323 744.06859589 -1405.93436646 743.76219177 -1406.54449463 743.44650269 C-1411.87762527 740.68693138 -1417.21027631 737.9264336 -1422.54296875 735.16601562 C-1426.11184826 733.31875731 -1429.6808475 731.4717308 -1433.25 729.625 C-1433.84137756 729.31899872 -1434.43275513 729.01299744 -1435.04205322 728.69772339 C-1445.60021929 723.23516341 -1456.16790106 717.79117328 -1466.73718262 712.35015869 C-1477.08728011 707.02149959 -1487.42650554 701.67242943 -1497.75830078 696.30834961 C-1506.66297238 691.68757906 -1515.58005887 687.09120648 -1524.5 682.5 C-1534.50805322 677.34872847 -1544.51016486 672.18654036 -1554.5 667 C-1564.44858031 661.8351069 -1574.40870389 656.69310063 -1584.375 651.5625 C-1594.8381621 646.17597191 -1605.29804246 640.78324103 -1615.75 635.375 C-1616.34218323 635.06859589 -1616.93436646 634.76219177 -1617.54449463 634.44650269 C-1622.87762527 631.68693138 -1628.21027631 628.9264336 -1633.54296875 626.16601562 C-1637.11184826 624.31875731 -1640.6808475 622.4717308 -1644.25 620.625 C-1644.84137756 620.31899872 -1645.43275513 620.01299744 -1646.04205322 619.69772339 C-1656.60021929 614.23516341 -1667.16790106 608.79117328 -1677.73718262 603.35015869 C-1688.08873629 598.02074989 -1698.42933759 592.6707764 -1708.76269531 587.30615234 C-1717.62463439 582.70772957 -1726.49823272 578.13221649 -1735.375 573.5625 C-1745.8381621 568.17597191 -1756.29804246 562.78324103 -1766.75 557.375 C-1767.34218323 557.06859589 -1767.93436646 556.76219177 -1768.54449463 556.44650269 C-1773.87762527 553.68693138 -1779.21027631 550.9264336 -1784.54296875 548.16601562 C-1788.11184826 546.31875731 -1791.6808475 544.4717308 -1795.25 542.625 C-1796.13706635 542.16599808 -1796.13706635 542.16599808 -1797.04205322 541.69772339 C-1807.60021929 536.23516341 -1818.16790106 530.79117328 -1828.73718262 525.35015869 C-1839.07999906 520.02524818 -1849.41234945 514.68070205 -1859.73632812 509.31933594 C-1865.95650976 506.09097666 -1872.18211453 502.87354418 -1878.4140625 499.66796875 C-1879.13265945 499.29833511 -1879.85125641 498.92870148 -1880.59162903 498.54786682 C-1882.0465228 497.79954824 -1883.50142291 497.05124197 -1884.95632935 496.302948 C-1896.67662298 490.27465687 -1908.38274285 484.22543093 -1920 478 C-1917.41074492 474.57911629 -1914.83191956 471.86711426 -1911.4375 469.25 C-1907.77965165 466.39130034 -1904.15083387 463.50822394 -1900.5625 460.5625 C-1899.63953125 459.80582031 -1898.7165625 459.04914063 -1897.765625 458.26953125 C-1896.85296875 457.52058594 -1895.9403125 456.77164062 -1895 456 C-1887.98251925 450.2477923 -1880.94779496 444.51723844 -1873.90356445 438.79785156 C-1870.09634929 435.70587121 -1866.29393199 432.60828163 -1862.5 429.5 C-1858.00976092 425.82124991 -1853.50642685 422.15888063 -1849 418.5 C-1842.65476674 413.34779234 -1836.32169206 408.18108095 -1830 403 C-1822.98208744 397.24831631 -1815.94779743 391.51724044 -1808.90356445 385.79785156 C-1805.09634929 382.70587121 -1801.29393199 379.60828163 -1797.5 376.5 C-1793.00976092 372.82124991 -1788.50642685 369.15888063 -1784 365.5 C-1777.65476674 360.34779234 -1771.32169206 355.18108095 -1765 350 C-1757.98571413 344.25128865 -1750.9549265 338.52333999 -1743.91455078 332.80664062 C-1738.26505941 328.21819393 -1732.62909519 323.61344805 -1727 319 C-1719.98288613 313.24897089 -1712.94987488 307.51795043 -1705.90576172 301.80004883 C-1702.07465395 298.68926203 -1698.25142699 295.56935361 -1694.4375 292.4375 C-1693.56222656 291.75300781 -1692.68695312 291.06851562 -1691.78515625 290.36328125 C-1689.07663538 288.06502721 -1686.77754825 285.64718241 -1684.45092773 282.97338867 C-1676.6629481 276.03903682 -1676.6629481 276.03903682 -1671.39352512 275.96179104 C-1668.40906051 276.42875467 -1665.53447768 277.08170164 -1662.60668945 277.82568359 C-1661.51445477 278.07410192 -1660.4222201 278.32252026 -1659.2968874 278.57846642 C-1656.99976361 279.10227539 -1654.70563056 279.63935976 -1652.4145546 280.18901825 C-1648.13831294 281.20465699 -1643.84439662 282.12120876 -1639.54539585 283.03469753 C-1633.99699502 284.21732862 -1628.45849099 285.44515779 -1622.91796875 286.6640625 C-1620.42706528 287.2101955 -1617.93611224 287.7561024 -1615.44511414 288.30180359 C-1610.13458576 289.46556391 -1604.82433768 290.63058948 -1599.51434326 291.79678345 C-1590.99922063 293.66681783 -1582.48333993 295.53338562 -1573.96728516 297.39916992 C-1572.88371145 297.63657302 -1572.88371145 297.63657302 -1571.77824736 297.87877214 C-1568.10186959 298.68422649 -1564.42548061 299.48962959 -1560.74908447 300.29500008 C-1557.77373866 300.94680926 -1554.79841822 301.59873409 -1551.82312012 302.25076103 C-1522.43795721 308.69041167 -1493.04557941 315.09658733 -1463.6505661 321.49113464 C-1452.10672781 324.002469 -1440.56310558 326.51479637 -1429.01953125 329.02734375 C-1428.37434099 329.16777052 -1427.72915073 329.3081973 -1427.06440926 329.45287943 C-1394.31061403 336.58187459 -1361.56145631 343.73209533 -1328.81257868 350.88364077 C-1316.06518384 353.6673435 -1303.31775639 356.45089691 -1290.5703125 359.234375 C-1289.82891722 359.39626446 -1289.08752194 359.55815392 -1288.32366014 359.72494912 C-1255.5511016 366.88106825 -1222.77685059 374.02941619 -1190.00197363 381.17490864 C-1187.93678698 381.62515545 -1185.87160118 382.07540612 -1183.80641556 382.52565765 C-1171.43975817 385.22182984 -1159.0730806 387.91790948 -1146.70637512 390.61386108 C-1127.3992021 394.82284437 -1108.09213917 399.03233232 -1088.78515625 403.2421875 C-1087.39886984 403.54446416 -1086.01258342 403.84674077 -1084.626297 404.14901733 C-1074.22384313 406.41725048 -1063.82139534 408.68551153 -1053.41894817 410.95377541 C-1043.71073181 413.07066124 -1034.00251348 415.18753809 -1024.29429054 417.30439377 C-1022.90790105 417.6066929 -1021.52151163 417.9089924 -1020.1351223 418.21129227 C-1000.83662907 422.41929495 -981.53803681 426.62684307 -962.2393533 430.83397299 C-902.97185068 443.75435733 -843.70558445 456.6803895 -784.44174618 469.61757255 C-779.66388528 470.66056911 -774.88601475 471.70352153 -770.10813564 472.74643463 C-761.87821796 474.54285741 -753.64834155 476.33946916 -745.41851234 478.13629723 C-742.67979762 478.7342389 -739.94106704 479.33210782 -737.20232201 479.92991066 C-733.45026947 480.74890053 -729.69827612 481.56816136 -725.94628906 482.38745117 C-724.31604341 482.74324281 -724.31604341 482.74324281 -722.6528635 483.10622215 C-717.38345265 484.25710266 -712.11603918 485.41551009 -706.85393906 486.59941578 C-703.94111748 487.22879481 -701.96346237 487.57980785 -699 487 C-697.17981437 485.53518394 -695.64863423 483.96422487 -694.1015625 482.21484375 C-691.59634549 479.57458716 -688.8869679 477.25140633 -686.13623047 474.87133789 C-682.76142802 471.91501094 -679.50981251 468.83187956 -676.25 465.75 C-670.51185663 460.34763096 -664.74064591 454.98740086 -658.921875 449.671875 C-655.79356015 446.81122345 -652.6763228 443.9389025 -649.5625 441.0625 C-649.02214111 440.56339111 -648.48178223 440.06428223 -647.92504883 439.55004883 C-646.83035108 438.53879388 -645.73570604 437.52748188 -644.64111328 436.51611328 C-641.92822414 434.00985896 -639.21405141 431.50499554 -636.5 429 C-635.41666043 428.00000676 -634.33332709 427.00000676 -633.25 426 C-626.75 420 -626.75 420 -625.12548828 418.50048828 C-624.04047744 417.49891474 -622.95551662 416.497287 -621.87060547 415.49560547 C-619.18834243 413.01923728 -616.50526066 410.54376936 -613.8203125 408.0703125 C-608.00699959 402.71287587 -602.21226679 397.33648126 -596.4375 391.9375 C-590.97254144 386.82889126 -585.47800817 381.75499275 -579.95703125 376.70703125 C-576.81666841 373.83509341 -573.68861186 370.94993466 -570.5625 368.0625 C-570.02222168 367.56347168 -569.48194336 367.06444336 -568.92529297 366.55029297 C-567.83051694 365.53895328 -566.7357905 364.52755992 -565.64111328 363.51611328 C-562.92822414 361.00985896 -560.21405141 358.50499554 -557.5 356 C-556.41666043 355.00000676 -555.33332709 354.00000676 -554.25 353 C-495.74999999 298.99999999 -495.74999999 298.99999999 -494.12548828 297.50048828 C-493.04047744 296.49891474 -491.95551662 295.497287 -490.87060547 294.49560547 C-488.18834243 292.01923728 -485.50526066 289.54376936 -482.8203125 287.0703125 C-477.00699959 281.71287587 -471.21226679 276.33648126 -465.4375 270.9375 C-459.97254144 265.82889126 -454.47800817 260.75499275 -448.95703125 255.70703125 C-445.81666841 252.83509341 -442.68861186 249.94993466 -439.5625 247.0625 C-439.02222168 246.56347168 -438.48194336 246.06444336 -437.92529297 245.55029297 C-436.83051694 244.53895328 -435.7357905 243.52755992 -434.64111328 242.51611328 C-431.92822414 240.00985896 -429.21405141 237.50499554 -426.5 235 C-425.41666043 234.00000676 -424.33332709 233.00000676 -423.25 232 C-377.75000001 190.00000001 -377.75000001 190.00000001 -376.12548828 188.50048828 C-375.04047744 187.49891474 -373.95551662 186.497287 -372.87060547 185.49560547 C-370.18834243 183.01923728 -367.50526066 180.54376936 -364.8203125 178.0703125 C-359.00699959 172.71287587 -353.21226679 167.33648126 -347.4375 161.9375 C-341.97254144 156.82889126 -336.47800817 151.75499275 -330.95703125 146.70703125 C-327.81666841 143.83509341 -324.68861186 140.94993466 -321.5625 138.0625 C-321.02222168 137.56347168 -320.48194336 137.06444336 -319.92529297 136.55029297 C-318.83051694 135.53895328 -317.7357905 134.52755992 -316.64111328 133.51611328 C-313.92822414 131.00985896 -311.21405141 128.50499554 -308.5 126 C-307.41666043 125.00000676 -306.33332709 124.00000676 -305.25 123 C-246.75 69 -246.75 69 -245.12548828 67.50048828 C-244.04047744 66.49891474 -242.95551662 65.497287 -241.87060547 64.49560547 C-239.18834243 62.01923728 -236.50526066 59.54376936 -233.8203125 57.0703125 C-228.61664079 52.27458443 -223.42360605 47.46840671 -218.25805664 42.6315918 C-216.33486528 40.8334115 -214.405971 39.0415047 -212.4765625 37.25 C-210.44169218 35.35821504 -208.44128329 33.44987893 -206.4609375 31.5 C-198.90685935 24.23147119 -190.03185746 19.20034282 -181 14 C-180.39091797 13.6405127 -179.78183594 13.28102539 -179.15429688 12.91064453 C-125.9249319 -18.39445559 -56.42980507 -27.76076859 0 0 Z " fill="#DFE0E1" transform="translate(9277,199)"/>
<path d="M0 0 C198.99 0 397.98 0 603 0 C603 8.99507156 603 8.99507156 602.45263672 13.06494141 C602.33163605 13.98780945 602.21063538 14.91067749 602.08596802 15.86151123 C601.95189545 16.84822815 601.81782288 17.83494507 601.6796875 18.8515625 C601.39109278 21.05576027 601.10303256 23.26002807 600.81542969 25.46435547 C600.6621521 26.62819763 600.50887451 27.79203979 600.35095215 28.9911499 C596.1248815 61.2568037 592.84297696 93.58328091 590 126 C589.91405579 126.9789624 589.82811157 127.9579248 589.73956299 128.96655273 C585.83558423 173.87676026 583.99237094 219.20943525 583.2037878 264.27911186 C583.18050127 265.60158279 583.18050127 265.60158279 583.1567443 266.95077031 C583.12248578 268.91265293 583.08852169 270.87454071 583.05480914 272.83643278 C583.01766603 274.9803222 582.97974214 277.12419821 582.94111009 279.26806131 C581.74706073 345.61690094 581.82830295 411.97283333 581.80243359 478.32982005 C581.79733761 491.39658126 581.78989468 504.46333914 581.78049088 517.53009796 C581.77985224 518.41918993 581.77921361 519.3082819 581.77855562 520.22431606 C581.77528788 524.76035257 581.77198654 529.29638906 581.76867336 533.83242555 C581.74495692 566.39555391 581.72575797 598.9586836 581.70907402 631.52181625 C581.6925708 663.70556674 581.67406076 695.88931509 581.65294075 728.0730629 C581.65228236 729.07771999 581.65162396 730.08237709 581.65094561 731.11747833 C581.64492992 740.29534533 581.63889002 749.4732123 581.63282111 758.65107926 C581.61774414 781.45206884 581.60297013 804.25305862 581.58840275 827.05404854 C581.58773961 828.09161519 581.58707647 829.12918184 581.58639324 830.19818991 C581.55427116 880.49882444 581.52564222 930.79946087 581.49731445 981.10009766 C581.48749929 998.52506512 581.47766856 1015.95003258 581.46777344 1033.375 C581.46715964 1034.45590393 581.46654584 1035.53680786 581.46591344 1036.65046645 C581.43728327 1087.03084197 581.40614893 1137.41121585 581.37438093 1187.79158947 C581.37231502 1191.0679465 581.37025019 1194.34430352 581.36818558 1197.62066055 C581.35449995 1219.33579372 581.34077144 1241.05092687 581.32701423 1262.76605999 C581.29964822 1305.96267834 581.27253397 1349.15929684 581.24559305 1392.35591545 C581.24431046 1394.41240236 581.24302769 1396.46888926 581.24174474 1398.52537617 C581.18409385 1490.93862829 581.12936959 1583.35188207 581.07592773 1675.76513672 C581.07542799 1676.62927082 581.07492825 1677.49340493 581.07441337 1678.38372492 C581.04942934 1721.58914984 581.02461308 1764.79457486 581 1808 C652.07631232 1807.92148969 723.15262332 1807.84183105 794.22892761 1807.7563324 C795.28635521 1807.75506072 796.34378281 1807.75378904 797.43325368 1807.75247882 C820.43196875 1807.72481355 843.43068358 1807.69694998 866.42939817 1807.66888306 C877.71326735 1807.65511378 888.99713659 1807.64138817 900.28100586 1807.62768555 C901.40369239 1807.62632146 902.52637892 1807.62495738 903.68308625 1807.62355196 C939.85988709 1807.57961689 976.03669046 1807.53854725 1012.21349635 1807.49901587 C1049.49114706 1807.45826605 1086.76879315 1807.41452116 1124.0464361 1807.36717889 C1129.35096659 1807.36044353 1134.65549713 1807.35374128 1139.96002769 1807.34705925 C1141.00370342 1807.34574352 1142.04737914 1807.34442779 1143.12268139 1807.3430722 C1157.66549927 1807.32481238 1172.20831815 1807.3085873 1186.75114015 1807.29400005 C1290.30058807 1807.27765206 1290.30058807 1807.27765206 1393.84643555 1806.53491211 C1394.71472371 1806.52498874 1395.58301187 1806.51506536 1396.4776118 1806.50484128 C1415.25295256 1806.28774262 1434.02526277 1805.95668726 1452.79768372 1805.56227112 C1453.64352615 1805.54451714 1454.48936858 1805.52676316 1455.36084261 1805.50847118 C1526.93758223 1803.99178118 1598.20056477 1799.92462746 1669.41796875 1792.46484375 C1670.89989464 1792.31024689 1670.89989464 1792.31024689 1672.41175842 1792.15252686 C1684.61865411 1790.85814462 1696.80440073 1789.40718453 1709 1788 C1709 1963.56 1709 2139.12 1709 2320 C1691.18 2318.02 1673.36 2316.04 1655 2314 C1637.91633177 2312.35581821 1637.91633177 2312.35581821 1620.81640625 2310.93359375 C1619.82645157 2310.85902451 1618.83649689 2310.78445526 1617.81654358 2310.70762634 C1563.27968487 2306.66868303 1508.65433998 2304.63261427 1454 2303 C1452.78940918 2302.96368469 1451.57881836 2302.92736938 1450.33154297 2302.88995361 C1440.41342414 2302.59683738 1430.4954154 2302.35737924 1420.57412338 2302.20384026 C1419.07883228 2302.18060367 1419.07883228 2302.18060367 1417.55333327 2302.15689766 C1355.38621843 2301.2088669 1293.22876671 2300.84977009 1231.05484846 2300.86833201 C1219.28200975 2300.8716312 1207.50917387 2300.86887766 1195.73633528 2300.86612797 C1172.68177126 2300.86093147 1149.62721006 2300.86129064 1126.57264579 2300.86420688 C1106.38167453 2300.86674751 1086.19070435 2300.86736922 1065.99973297 2300.86618423 C1064.6337118 2300.86610675 1063.26769062 2300.8660296 1061.90166944 2300.86595276 C1056.40835174 2300.86564214 1050.91503403 2300.86532346 1045.42171632 2300.864993 C1030.075279 2300.86407709 1014.72884167 2300.86350568 999.38240433 2300.86320686 C998.68420122 2300.86319322 997.9859981 2300.86317957 997.26663732 2300.86316551 C975.10022688 2300.86275772 952.93381679 2300.86387526 930.76740646 2300.86605644 C930.05110669 2300.86612669 929.33480691 2300.86619694 928.59680107 2300.86626932 C916.97382158 2300.86741347 905.3508421 2300.86863331 893.72786262 2300.86985949 C847.71652332 2300.8747083 801.70518694 2300.87449322 755.69384766 2300.86962891 C744.09972 2300.86840706 732.50559235 2300.86719574 720.91146469 2300.86605644 C720.19693987 2300.86598599 719.48241505 2300.86591555 718.74623797 2300.86584296 C696.6153114 2300.8636762 674.48438507 2300.8627745 652.3534584 2300.86320686 C651.30657449 2300.86322724 651.30657449 2300.86322724 650.2385414 2300.86324803 C634.89521233 2300.86356096 619.55188328 2300.86419548 604.20855423 2300.86511737 C598.71462507 2300.86544631 593.2206959 2300.86575942 587.72676674 2300.86606808 C586.36079261 2300.86614547 584.99481849 2300.8662242 583.62884436 2300.86630427 C562.81359501 2300.86752128 541.99834707 2300.86634434 521.18309784 2300.86370468 C498.20630941 2300.86080496 475.22952417 2300.86164386 452.25273612 2300.86698543 C440.58953939 2300.8696096 428.92634781 2300.87083752 417.26315117 2300.86733627 C368.89595921 2300.85378341 320.53406552 2301.00359556 272.16876221 2301.45339966 C271.06673252 2301.46346693 269.96470284 2301.47353419 268.82927832 2301.48390653 C179.18159844 2302.30360324 89.54345871 2304.50020692 0 2309 C0.60108766 2299.40664093 1.95849999 2289.96982917 3.3538208 2280.46917725 C14.74821678 2202.2637027 18.3759887 2122.95626222 20 2044 C20.01961262 2043.06193626 20.03922523 2042.12387252 20.05943217 2041.15738261 C20.87379205 2002.03445476 21.14761891 1962.92859099 21.12948831 1923.7984119 C21.12590873 1915.5919156 21.12842334 1907.38542318 21.1309446 1899.17892688 C21.13548743 1883.85512913 21.13542305 1868.53133473 21.13266373 1853.2075367 C21.12989258 1837.72269053 21.1293479 1822.23784656 21.13140106 1806.75300026 C21.13159482 1805.27475399 21.13159482 1805.27475399 21.13179249 1803.76664415 C21.13232589 1799.75151931 21.13287461 1795.73639448 21.13344277 1791.72126964 C21.13870612 1754.49865429 21.13910237 1717.2760404 21.13629532 1680.05342484 C21.13359273 1644.19764817 21.13254367 1608.34187219 21.13381577 1572.48609543 C21.13389325 1570.22636555 21.1339704 1567.96663568 21.13404724 1565.7069058 C21.13435775 1556.62404356 21.13467642 1547.54118131 21.135007 1538.45831907 C21.13592363 1513.07392971 21.13649451 1487.68954036 21.13679314 1462.30515099 C21.13680678 1461.14957518 21.13682043 1459.99399938 21.13683449 1458.80340613 C21.13724326 1422.02761156 21.1361195 1385.25181721 21.13394356 1348.47602272 C21.13383818 1346.68903802 21.13383818 1346.68903802 21.13373068 1344.86595262 C21.13258598 1325.52444974 21.1313664 1306.18294686 21.13014051 1286.84144398 C21.12528518 1210.15471207 21.12550995 1133.4679819 21.13037109 1056.78125 C21.13159247 1037.4514548 21.1328036 1018.1216596 21.13394356 998.7918644 C21.13401401 997.60135658 21.13408445 996.41084876 21.13415704 995.18426494 C21.13631607 958.44565503 21.13722696 921.70704526 21.13679314 884.96843529 C21.13677955 883.81370065 21.13676597 882.65896602 21.13675197 881.46923943 C21.13643937 856.11096047 21.1358055 830.75268154 21.13488263 805.3944026 C21.13455355 796.31944163 21.13424046 787.24448065 21.13393192 778.16951968 C21.13385453 775.91228814 21.1337758 773.65505661 21.13369573 771.39782507 C21.13242797 735.56429626 21.13384317 699.73076821 21.13654587 663.89723951 C21.13931545 626.77107041 21.1382666 589.64490307 21.13301457 552.51873423 C21.13246233 548.51575678 21.13192561 544.51277932 21.13140106 540.50980186 C21.13127086 539.5275279 21.13114065 538.54525394 21.1310065 537.5332141 C21.1290494 522.1044267 21.13039084 506.67564152 21.13317007 491.24685432 C21.13584347 476.00272967 21.13483653 460.75860868 21.13015598 445.51448449 C21.12775574 437.39148937 21.12679494 429.26850175 21.13056196 421.14550693 C21.15296985 369.94050417 20.72446071 318.74649147 19.125 267.5625 C19.08287159 266.19145786 19.04076824 264.82041495 18.99868774 263.44937134 C16.94114706 196.88610699 13.04975589 130.45014263 6.375 64.1875 C6.30147812 63.45709503 6.22795624 62.72669006 6.15220642 61.97415161 C4.56594491 46.25122537 2.91310448 30.53872968 0.89486694 14.86430359 C0.77696808 13.92593155 0.65906921 12.98755951 0.53759766 12.02075195 C0.38129379 10.8119915 0.38129379 10.8119915 0.22183228 9.57881165 C-0.05189056 6.3967696 0 3.19379332 0 0 Z " fill="#E5E5E6" transform="translate(3192,189)"/>
<path d="M0 0 C0.63099609 0.30663574 1.26199219 0.61327148 1.91210938 0.92919922 C28.14713971 13.8260834 51.38498808 34.83719962 69 58 C70.02237411 59.30682221 71.04590712 60.61273822 72.0703125 61.91796875 C106.81956333 106.44856566 131.46157165 158.62386014 125.5390625 216.3515625 C124.94253253 220.95999321 124.06126596 225.47740434 123 230 C122.81727539 230.78181641 122.63455078 231.56363281 122.44628906 232.36914062 C117.7265589 251.63555966 109.21986634 270.33635314 97 286 C96.35289062 286.87785156 95.70578125 287.75570313 95.0390625 288.66015625 C88.64507789 296.97723584 80.91170578 303.88282493 73.2109375 310.96240234 C69.76427751 314.13884054 66.35247115 317.35208127 62.9375 320.5625 C61.61352994 321.80365075 60.28931129 323.04453638 58.96484375 324.28515625 C54.97573192 328.02255188 50.98777965 331.76118305 47 335.5 C45.66667174 336.75000541 44.33333841 338.00000541 43 339.25 C42.34 339.86875 41.68 340.4875 41 341.125 C-19.66666667 398 -80.33333333 454.875 -141 511.75 C-141.66008057 512.36883057 -142.32016113 512.98766113 -143.00024414 513.62524414 C-144.33274337 514.874452 -145.66526288 516.12363822 -146.99780273 517.37280273 C-150.34406511 520.50974485 -153.68996719 523.64706958 -157.03515625 526.78515625 C-164.13402898 533.44378881 -171.24036893 540.09423635 -178.35791016 546.73291016 C-184.91083961 552.84657542 -191.44768697 558.9773465 -197.98388672 565.10888672 C-201.32192668 568.23996658 -204.66101346 571.36992964 -208 574.5 C-209.33333841 575.74999459 -210.66667174 576.99999459 -212 578.25 C-262.66666667 625.75 -313.33333333 673.25 -364 720.75 C-364.6604834 721.3692334 -365.3209668 721.9884668 -366.00146484 722.62646484 C-367.32979347 723.87171208 -368.65824326 725.11683007 -369.98681641 726.36181641 C-373.39774607 729.55846435 -376.80629879 732.75758921 -380.2109375 735.9609375 C-380.90832031 736.61642578 -381.60570313 737.27191406 -382.32421875 737.94726562 C-383.63231645 739.17687746 -384.93968502 740.40726574 -386.24609375 741.63867188 C-387.48361727 742.8013134 -388.73823114 743.94600076 -390.00830078 745.07299805 C-392.11495406 747.01764412 -392.11495406 747.01764412 -394.01904297 749.62426758 C-396.55862332 752.60569407 -398.43285012 754.34883989 -402 756 C-407.84354071 755.64271537 -412.98845665 753.89809963 -418.48492432 751.95626831 C-421.47630027 750.90179107 -424.48356342 749.91726114 -427.50341797 748.94750977 C-430.88741816 747.86067585 -434.26970699 746.77012266 -437.64663696 745.66148376 C-452.55585702 740.77675229 -467.63311557 736.47177694 -482.70844269 732.13370132 C-485.13939081 731.43335406 -487.56965205 730.73067291 -489.99969482 730.02719116 C-526.46341472 719.47203049 -563.06658988 709.44674598 -599.72972107 699.60929871 C-601.96385185 699.00970146 -604.19782867 698.40953391 -606.4317627 697.8092041 C-687.85508336 675.93268229 -769.62764923 655.3841604 -1045.79223633 594.85742188 C-1049.21616948 594.15997502 -1052.63975517 593.46084011 -1056.06323624 592.76117802 C-1136.2089893 576.38526769 -1216.73231988 561.95154471 -1883.51928711 472.71142578 C-1884.73969696 472.6001384 -1885.96010681 472.48885101 -1887.21749878 472.37419128 C-1889.44456133 472.17186711 -1891.67178279 471.97128014 -1893.89920044 471.77290344 C-1898.9605112 471.31502511 -1903.97783356 470.78003582 -1909 470 C-1905.59000902 463.8000164 -1900.54088103 460.2597979 -1895 456 C-1893.28614164 454.61095609 -1891.57793364 453.21491594 -1889.875 451.8125 C-1885.26076803 448.02830693 -1880.63309801 444.26106844 -1876 440.5 C-1871.49352505 436.84117903 -1866.99023871 433.17874979 -1862.5 429.5 C-1858.00976092 425.82124991 -1853.50642685 422.15888063 -1849 418.5 C-1842.65476674 413.34779234 -1836.32169206 408.18108095 -1830 403 C-1822.98208744 397.24831631 -1815.94779743 391.51724044 -1808.90356445 385.79785156 C-1805.09634929 382.70587121 -1801.29393199 379.60828163 -1797.5 376.5 C-1793.00976092 372.82124991 -1788.50642685 369.15888063 -1784 365.5 C-1777.65476674 360.34779234 -1771.32169206 355.18108095 -1765 350 C-1757.98571413 344.25128865 -1750.9549265 338.52333999 -1743.91455078 332.80664062 C-1738.26505941 328.21819393 -1732.62909519 323.61344805 -1727 319 C-1719.98288613 313.24897089 -1712.94987488 307.51795043 -1705.90576172 301.80004883 C-1702.07465395 298.68926203 -1698.25142699 295.56935361 -1694.4375 292.4375 C-1693.56222656 291.75300781 -1692.68695313 291.06851562 -1691.78515625 290.36328125 C-1689.07663538 288.06502721 -1686.77754825 285.64718241 -1684.45092773 282.97338867 C-1676.6629481 276.03903682 -1676.6629481 276.03903682 -1671.39352512 275.96179104 C-1668.40906051 276.42875467 -1665.53447768 277.08170164 -1662.60668945 277.82568359 C-1660.96833744 278.19831109 -1660.96833744 278.19831109 -1659.2968874 278.57846642 C-1656.99976361 279.10227539 -1654.70563056 279.63935976 -1652.4145546 280.18901825 C-1648.13831294 281.20465699 -1643.84439662 282.12120876 -1639.54539585 283.03469753 C-1633.99699502 284.21732862 -1628.45849099 285.44515779 -1622.91796875 286.6640625 C-1620.42706528 287.2101955 -1617.93611224 287.7561024 -1615.44511414 288.30180359 C-1610.13458576 289.46556391 -1604.82433768 290.63058948 -1599.51434326 291.79678345 C-1590.99922063 293.66681783 -1582.48333993 295.53338562 -1573.96728516 297.39916992 C-1573.24490268 297.55743865 -1572.52252021 297.71570739 -1571.77824736 297.87877214 C-1568.10186959 298.68422649 -1564.42548061 299.48962959 -1560.74908447 300.29500008 C-1557.77373866 300.94680926 -1554.79841822 301.59873409 -1551.82312012 302.25076103 C-1522.43795721 308.69041167 -1493.04557941 315.09658733 -1463.6505661 321.49113464 C-1452.10672781 324.002469 -1440.56310558 326.51479637 -1429.01953125 329.02734375 C-1428.37434099 329.16777052 -1427.72915073 329.3081973 -1427.06440926 329.45287943 C-1394.31061403 336.58187459 -1361.56145631 343.73209533 -1328.81257868 350.88364077 C-1316.06518384 353.6673435 -1303.31775639 356.45089691 -1290.5703125 359.234375 C-1289.82891722 359.39626446 -1289.08752194 359.55815392 -1288.32366014 359.72494912 C-1255.5511016 366.88106825 -1222.77685059 374.02941619 -1190.00197363 381.17490864 C-1187.93678698 381.62515545 -1185.87160118 382.07540612 -1183.80641556 382.52565765 C-1171.43975817 385.22182984 -1159.0730806 387.91790948 -1146.70637512 390.61386108 C-1127.3992021 394.82284437 -1108.09213917 399.03233232 -1088.78515625 403.2421875 C-1087.39886984 403.54446416 -1086.01258342 403.84674077 -1084.626297 404.14901733 C-1074.22384313 406.41725048 -1063.82139534 408.68551153 -1053.41894817 410.95377541 C-1043.71073181 413.07066124 -1034.00251348 415.18753809 -1024.29429054 417.30439377 C-1022.90790105 417.6066929 -1021.52151163 417.9089924 -1020.1351223 418.21129227 C-1000.83662907 422.41929495 -981.53803681 426.62684307 -962.2393533 430.83397299 C-902.97185068 443.75435733 -843.70558445 456.6803895 -784.44174618 469.61757255 C-779.66388528 470.66056911 -774.88601475 471.70352153 -770.10813564 472.74643463 C-761.87821796 474.54285741 -753.64834155 476.33946916 -745.41851234 478.13629723 C-742.67979762 478.7342389 -739.94106704 479.33210782 -737.20232201 479.92991066 C-733.45026947 480.74890053 -729.69827612 481.56816136 -725.94628906 482.38745117 C-724.31604341 482.74324281 -724.31604341 482.74324281 -722.6528635 483.10622215 C-717.38345265 484.25710266 -712.11603918 485.41551009 -706.85393906 486.59941578 C-703.94111748 487.22879481 -701.96346237 487.57980785 -699 487 C-697.17981437 485.53518394 -695.64863423 483.96422487 -694.1015625 482.21484375 C-691.59634549 479.57458716 -688.8869679 477.25140633 -686.13623047 474.87133789 C-682.76142802 471.91501094 -679.50981251 468.83187956 -676.25 465.75 C-670.51185663 460.34763096 -664.74064591 454.98740086 -658.921875 449.671875 C-655.79356015 446.81122345 -652.6763228 443.9389025 -649.5625 441.0625 C-649.02214111 440.56339111 -648.48178223 440.06428223 -647.92504883 439.55004883 C-646.83035108 438.53879388 -645.73570604 437.52748188 -644.64111328 436.51611328 C-641.92822414 434.00985896 -639.21405141 431.50499554 -636.5 429 C-635.41666043 428.00000676 -634.33332709 427.00000676 -633.25 426 C-626.75 420 -626.75 420 -625.12548828 418.50048828 C-624.04047744 417.49891474 -622.95551662 416.497287 -621.87060547 415.49560547 C-619.18834243 413.01923728 -616.50526066 410.54376936 -613.8203125 408.0703125 C-608.00699959 402.71287587 -602.21226679 397.33648126 -596.4375 391.9375 C-590.97254144 386.82889126 -585.47800817 381.75499275 -579.95703125 376.70703125 C-576.81666841 373.83509341 -573.68861186 370.94993466 -570.5625 368.0625 C-570.02222168 367.56347168 -569.48194336 367.06444336 -568.92529297 366.55029297 C-567.83051694 365.53895328 -566.7357905 364.52755992 -565.64111328 363.51611328 C-562.92822414 361.00985896 -560.21405141 358.50499554 -557.5 356 C-556.41666043 355.00000676 -555.33332709 354.00000676 -554.25 353 C-495.75000001 299.00000001 -495.75000001 299.00000001 -494.12548828 297.50048828 C-493.04047744 296.49891474 -491.95551662 295.497287 -490.87060547 294.49560547 C-488.18834243 292.01923728 -485.50526066 289.54376936 -482.8203125 287.0703125 C-477.00699959 281.71287587 -471.21226679 276.33648126 -465.4375 270.9375 C-459.97254144 265.82889126 -454.47800817 260.75499275 -448.95703125 255.70703125 C-445.81666841 252.83509341 -442.68861186 249.94993466 -439.5625 247.0625 C-439.02222168 246.56347168 -438.48194336 246.06444336 -437.92529297 245.55029297 C-436.83051694 244.53895328 -435.7357905 243.52755992 -434.64111328 242.51611328 C-431.92822414 240.00985896 -429.21405141 237.50499554 -426.5 235 C-425.41666043 234.00000676 -424.33332709 233.00000676 -423.25 232 C-377.75000001 190.00000001 -377.75000001 190.00000001 -376.12548828 188.50048828 C-375.04047744 187.49891474 -373.95551662 186.497287 -372.87060547 185.49560547 C-370.18834243 183.01923728 -367.50526066 180.54376936 -364.8203125 178.0703125 C-359.00699959 172.71287587 -353.21226679 167.33648126 -347.4375 161.9375 C-341.97254144 156.82889126 -336.47800817 151.75499275 -330.95703125 146.70703125 C-327.81666841 143.83509341 -324.68861186 140.94993466 -321.5625 138.0625 C-321.02222168 137.56347168 -320.48194336 137.06444336 -319.92529297 136.55029297 C-318.83051694 135.53895328 -317.7357905 134.52755992 -316.64111328 133.51611328 C-313.92822414 131.00985896 -311.21405141 128.50499554 -308.5 126 C-307.41666043 125.00000676 -306.33332709 124.00000676 -305.25 123 C-246.74999999 68.99999999 -246.74999999 68.99999999 -245.12548828 67.50048828 C-244.04047744 66.49891474 -242.95551662 65.497287 -241.87060547 64.49560547 C-239.18834243 62.01923728 -236.50526066 59.54376936 -233.8203125 57.0703125 C-228.61664079 52.27458443 -223.42360605 47.46840671 -218.25805664 42.6315918 C-216.33486528 40.8334115 -214.405971 39.0415047 -212.4765625 37.25 C-210.44169218 35.35821504 -208.44128329 33.44987893 -206.4609375 31.5 C-198.90685935 24.23147119 -190.03185746 19.20034282 -181 14 C-180.39091797 13.6405127 -179.78183594 13.28102539 -179.15429688 12.91064453 C-125.9249319 -18.39445559 -56.42980507 -27.76076859 0 0 Z " fill="#D9DADC" transform="translate(9277,199)"/>
</svg>
